<?xml version="1.0" encoding="UTF-8" standalone="no"?><!DOCTYPE svg PUBLIC "-//W3C//DTD SVG 1.1//EN" "http://www.w3.org/Graphics/SVG/1.1/DTD/svg11.dtd"><svg width="100%" height="100%" viewBox="0 0 21 24" version="1.1" xmlns="http://www.w3.org/2000/svg" xmlns:xlink="http://www.w3.org/1999/xlink" xml:space="preserve" xmlns:serif="http://www.serif.com/" style="fill-rule:evenodd;clip-rule:evenodd;stroke-linejoin:round;stroke-miterlimit:1.41421;"><path d="M3.171,5.595c-1.963,0 -3.026,-0.328 -3.158,-0.976c-0.302,-1.482 4.867,-2.974 5.906,-3.257c0.13,-0.032 0.264,0.043 0.303,0.171c0.006,0.021 0.009,0.043 0.009,0.065c0,0.111 -0.076,0.209 -0.183,0.238c-3.985,1.086 -5.645,2.225 -5.551,2.686c0.044,0.216 0.667,0.581 2.725,0.581c1.109,-0.01 2.215,-0.09 3.314,-0.24c0.011,-0.001 0.023,-0.002 0.035,-0.002c0.123,-0.002 0.229,0.091 0.241,0.213c0.002,0.01 0.002,0.021 0.002,0.032c0,0.123 -0.092,0.227 -0.215,0.243c-1.136,0.152 -2.281,0.235 -3.428,0.246l0,0Z" style="fill:#88ae3d;fill-rule:nonzero;"/><path d="M12.506,4.136c-0.11,0 -0.207,-0.074 -0.236,-0.179c-0.019,-0.062 -0.012,-0.128 0.019,-0.184c0.032,-0.058 0.086,-0.101 0.149,-0.119c3.722,-1.057 5.273,-2.146 5.184,-2.583c-0.043,-0.215 -0.673,-0.58 -2.748,-0.58c-1.254,0.013 -2.506,0.113 -3.746,0.299l-0.03,0.001c-0.124,0.004 -0.232,-0.087 -0.248,-0.209c-0.019,-0.133 0.075,-0.258 0.208,-0.277c1.284,-0.189 2.58,-0.291 3.877,-0.305c1.971,0 3.037,0.327 3.171,0.973c0.28,1.386 -4.163,2.764 -5.533,3.153c-0.022,0.006 -0.044,0.01 -0.067,0.01l0,0Z" style="fill:#88ae3d;fill-rule:nonzero;"/><path d="M5.358,3.995c-0.975,0 -1.462,-0.164 -1.534,-0.513c-0.108,-0.521 0.895,-1.081 2.981,-1.664c0.023,-0.007 0.047,-0.011 0.071,-0.01c0.109,0 0.205,0.073 0.234,0.178c0.017,0.063 0.01,0.129 -0.022,0.186c-0.032,0.057 -0.085,0.099 -0.149,0.116c-0.94,0.169 -1.831,0.541 -2.611,1.088c0.335,0.112 0.69,0.155 1.042,0.127c0.612,-0.008 1.224,-0.054 1.831,-0.137l0.024,0c0.127,-0.005 0.237,0.089 0.252,0.214c0.016,0.133 -0.079,0.255 -0.212,0.275c-0.632,0.085 -1.269,0.132 -1.907,0.14l0,0Z" style="fill:#88ae3d;fill-rule:nonzero;"/><path d="M10.942,3.118c-0.111,0 -0.209,-0.074 -0.239,-0.18c-0.018,-0.063 -0.009,-0.131 0.025,-0.188c0.032,-0.057 0.086,-0.098 0.149,-0.115c0.993,-0.176 1.936,-0.563 2.766,-1.133c-0.34,-0.106 -0.696,-0.148 -1.051,-0.123c-0.7,0.01 -1.397,0.066 -2.089,0.169l-0.031,0.002c-0.123,0.003 -0.23,-0.088 -0.247,-0.21c-0.002,-0.011 -0.003,-0.024 -0.003,-0.036c0,-0.122 0.092,-0.226 0.214,-0.242c0.72,-0.104 1.445,-0.163 2.172,-0.176c0.981,0 1.47,0.164 1.542,0.513c0.11,0.533 -0.948,1.109 -3.143,1.709c-0.021,0.006 -0.043,0.009 -0.065,0.009l0,0.001Z" style="fill:#88ae3d;fill-rule:nonzero;"/><path d="M17.589,16.519c-1.258,0.603 -2.579,1.065 -3.94,1.378c-1.38,0.325 -2.792,0.492 -4.21,0.497c-0.593,0.001 -1.186,-0.032 -1.775,-0.1l-0.003,0.012c1.148,1.112 2.686,1.737 4.289,1.744c2.391,-0.037 4.57,-1.403 5.633,-3.533l0.006,0.002Z" style="fill:#88ae3d;fill-rule:nonzero;"/><path d="M3.001,24c0.012,-2.24 1.869,-4.076 4.122,-4.076c2.253,0 4.11,1.836 4.121,4.076l-8.243,0Z" style="fill:#88ae3d;fill-rule:nonzero;"/><path d="M12.76,24c0.011,-2.239 1.868,-4.075 4.12,-4.075c2.252,0 4.109,1.836 4.12,4.075l-8.24,0Z" style="fill:#88ae3d;fill-rule:nonzero;"/><path d="M8.357,13.772c-0.534,0 -0.973,0.437 -0.973,0.968c0,0.531 0.44,0.968 0.974,0.968c0.534,0 0.974,-0.437 0.974,-0.968c0,-0.001 0,-0.001 0,-0.001c0,-0.531 -0.439,-0.967 -0.973,-0.967c-0.001,0 -0.001,0 -0.002,0Zm5.079,-0.628c-0.534,0 -0.973,0.437 -0.973,0.968c0,0.531 0.44,0.969 0.974,0.969c0.535,0 0.975,-0.438 0.975,-0.969c0,0 0,0 0,0c0,-0.531 -0.44,-0.968 -0.974,-0.968c-0.001,0 -0.001,0 -0.002,0Zm-3.719,-9.93l0.776,3.108l0.008,0c0.474,-0.117 0.96,-0.176 1.448,-0.175c3.69,0.149 6.607,3.283 6.47,6.952c0.001,0.811 -0.131,1.618 -0.393,2.387l-0.02,0.031c-1.42,0.771 -2.94,1.343 -4.518,1.7c-2.141,0.529 -4.367,0.628 -6.548,0.291l-0.017,-0.024c-0.949,-1.266 -1.458,-2.806 -1.45,-4.385c-0.05,-2.744 1.534,-5.272 4.032,-6.44l-0.002,0l-0.777,-3.112l0,0.009c-0.529,-0.085 -0.921,-0.544 -0.921,-1.076c0,-0.599 0.495,-1.091 1.097,-1.091c0.602,0 1.098,0.492 1.098,1.091c0,0.268 -0.1,0.527 -0.28,0.727l-0.003,0.007Z" style="fill:#88ae3d;fill-rule:nonzero;"/></svg>