<svg clip-rule="evenodd" fill-rule="evenodd" stroke-linejoin="round" stroke-miterlimit="1.41421" viewBox="0 0 21 24" xmlns="http://www.w3.org/2000/svg"><g fill="#88ae3d" fill-rule="nonzero"><path d="m3.171 5.595c-1.963 0-3.026-.328-3.158-.976-.302-1.482 4.867-2.974 5.906-3.257.13-.032.264.043.303.171.006.021.009.043.009.065 0 .111-.076.209-.183.238-3.985 1.086-5.645 2.225-5.551 2.686.044.216.667.581 2.725.581 1.109-.01 2.215-.09 3.314-.24.011-.001.023-.002.035-.002.123-.002.229.091.241.213.002.01.002.021.002.032 0 .123-.092.227-.215.243-1.136.152-2.281.235-3.428.246z"/><path d="m12.506 4.136c-.11 0-.207-.074-.236-.179-.019-.062-.012-.128.019-.184.032-.058.086-.101.149-.119 3.722-1.057 5.273-2.146 5.184-2.583-.043-.215-.673-.58-2.748-.58-1.254.013-2.506.113-3.746.299l-.03.001c-.124.004-.232-.087-.248-.209-.019-.133.075-.258.208-.277 1.284-.189 2.58-.291 3.877-.305 1.971 0 3.037.327 3.171.973.28 1.386-4.163 2.764-5.533 3.153-.022.006-.044.01-.067.01z"/><path d="m5.358 3.995c-.975 0-1.462-.164-1.534-.513-.108-.521.895-1.081 2.981-1.664.023-.007.047-.011.071-.01.109 0 .205.073.234.178.017.063.01.129-.022.186s-.085.099-.149.116c-.94.169-1.831.541-2.611 1.088.335.112.69.155 1.042.127.612-.008 1.224-.054 1.831-.137h.024c.127-.005.237.089.252.214.016.133-.079.255-.212.275-.632.085-1.269.132-1.907.14z"/><path d="m10.942 3.118c-.111 0-.209-.074-.239-.18-.018-.063-.009-.131.025-.188.032-.057.086-.098.149-.115.993-.176 1.936-.563 2.766-1.133-.34-.106-.696-.148-1.051-.123-.7.01-1.397.066-2.089.169l-.031.002c-.123.003-.23-.088-.247-.21-.002-.011-.003-.024-.003-.036 0-.122.092-.226.214-.242.72-.104 1.445-.163 2.172-.176.981 0 1.47.164 1.542.513.11.533-.948 1.109-3.143 1.709-.021.006-.043.009-.065.009z"/><path d="m17.589 16.519c-1.258.603-2.579 1.065-3.94 1.378-1.38.325-2.792.492-4.21.497-.593.001-1.186-.032-1.775-.1l-.003.012c1.148 1.112 2.686 1.737 4.289 1.744 2.391-.037 4.57-1.403 5.633-3.533z"/><path d="m3.001 24c.012-2.24 1.869-4.076 4.122-4.076s4.11 1.836 4.121 4.076z"/><path d="m12.76 24c.011-2.239 1.868-4.075 4.12-4.075s4.109 1.836 4.12 4.075z"/><path d="m8.357 13.772c-.534 0-.973.437-.973.968s.44.968.974.968.974-.437.974-.968c0-.001 0-.001 0-.001 0-.531-.439-.967-.973-.967-.001 0-.001 0-.002 0zm5.079-.628c-.534 0-.973.437-.973.968s.44.969.974.969c.535 0 .975-.438.975-.969s-.44-.968-.974-.968c-.001 0-.001 0-.002 0zm-3.719-9.93.776 3.108h.008c.474-.117.96-.176 1.448-.175 3.69.149 6.607 3.283 6.47 6.952.001.811-.131 1.618-.393 2.387l-.02.031c-1.42.771-2.94 1.343-4.518 1.7-2.141.529-4.367.628-6.548.291l-.017-.024c-.949-1.266-1.458-2.806-1.45-4.385-.05-2.744 1.534-5.272 4.032-6.44h-.002l-.777-3.112v.009c-.529-.085-.921-.544-.921-1.076 0-.599.495-1.091 1.097-1.091s1.098.492 1.098 1.091c0 .268-.1.527-.28.727z"/></g></svg>