<svg id="9c18dda6-24e3-4d96-abdc-608dd38e0338" data-name="Your Design" xmlns="http://www.w3.org/2000/svg" viewBox="0 0 78.25 31.33"><defs><style>.a8f3016a-c4ca-4706-af53-fb037f5cf12a{fill:none;}.\39 54215f3-71c9-4b0a-8997-c305d147268f{fill:#1c1b1a;}.\30 fb4b6c2-6a87-417b-be32-c7c0715d3d8c{fill:#88ae3d;}</style></defs><title>smallrobot</title><rect class="a8f3016a-c4ca-4706-af53-fb037f5cf12a" x="-20.78" y="-50.77" width="252" height="144"/><path class="954215f3-71c9-4b0a-8997-c305d147268f" d="M26,12.94a.81.81,0,0,1,.48-.54,4.78,4.78,0,0,0,3.74,1.41c2.23,0,3.46-1.15,3.46-2.88s-1.05-2.41-3.44-3c-1.93-.48-3.8-1.15-3.8-3.46,0-1.83,1.47-3.22,3.88-3.22a5.47,5.47,0,0,1,3.84,1.27.87.87,0,0,1-.44.58,5,5,0,0,0-3.4-1.15c-2,0-3.14,1-3.14,2.48,0,1.69,1.39,2.29,3.24,2.74,2.5.62,4,1.57,4,3.76s-1.59,3.6-4.19,3.6A5.44,5.44,0,0,1,26,12.94Z"/><path class="954215f3-71c9-4b0a-8997-c305d147268f" d="M48.07,1.53V14.26a1,1,0,0,1-.36.06,1.15,1.15,0,0,1-.38-.06V3.84l0-.87-.18.48L42.7,13a2,2,0,0,1-.34,0A1.76,1.76,0,0,1,42,13l-4.71-9.6L37.15,3l0,.88V14.26a1,1,0,0,1-.36.06,1,1,0,0,1-.36-.06V1.53a1.26,1.26,0,0,1,.52-.1.72.72,0,0,1,.2,0l5,10.16.22.54.22-.54L47.37,1.47a.62.62,0,0,1,.2,0A1.37,1.37,0,0,1,48.07,1.53Z"/><path class="954215f3-71c9-4b0a-8997-c305d147268f" d="M60.38,14.2a1,1,0,0,1-.52.12,1.13,1.13,0,0,1-.26,0L58,10.2H51.91l-1.55,4.08a1.1,1.1,0,0,1-.26,0,1.32,1.32,0,0,1-.52-.1L54.51,1.49a1.25,1.25,0,0,1,.38,0,1.12,1.12,0,0,1,.36,0ZM57.7,9.52,55.13,3.1l-.28-.75-.24.75L52.17,9.52Z"/><path class="954215f3-71c9-4b0a-8997-c305d147268f" d="M68.87,13.92a1.12,1.12,0,0,1-.06.36h-7V1.49a1.14,1.14,0,0,1,.36-.06,1.27,1.27,0,0,1,.38.06V13.6h6.28A1,1,0,0,1,68.87,13.92Z"/><path class="954215f3-71c9-4b0a-8997-c305d147268f" d="M77.26,13.92a1.12,1.12,0,0,1-.06.36h-7V1.49a1.14,1.14,0,0,1,.36-.06,1.27,1.27,0,0,1,.38.06V13.6H77.2A1,1,0,0,1,77.26,13.92Z"/><path class="954215f3-71c9-4b0a-8997-c305d147268f" d="M30.67,29.87a1.94,1.94,0,0,1-.62.08.79.79,0,0,1-.22,0l-3.46-5.35c-.22,0-.46,0-.72,0a21.62,21.62,0,0,1-2.51-.1v5.39a1.23,1.23,0,0,1-.76,0V17.34a13.32,13.32,0,0,1,3.42-.42c2.9,0,4.43,1.45,4.49,3.68a3.81,3.81,0,0,1-3.12,3.84Zm-5-5.92c2.66,0,3.84-1.37,3.9-3.32-.06-1.75-1.27-3-3.76-3a12.13,12.13,0,0,0-2.64.26v5.92A17.5,17.5,0,0,0,25.66,23.94Z"/><path class="954215f3-71c9-4b0a-8997-c305d147268f" d="M31.63,23.51c0-3.74,2.37-6.64,6-6.64s6.06,2.8,6.06,6.64-2.37,6.62-6.06,6.62S31.63,27.31,31.63,23.51Zm11.33,0c0-3.5-2-5.94-5.29-5.94S32.4,20,32.4,23.51s2,5.92,5.27,5.92S43,26.95,43,23.51Z"/><path class="954215f3-71c9-4b0a-8997-c305d147268f" d="M54.08,26.47c0,2.35-1.71,3.68-4.79,3.68a20,20,0,0,1-3.4-.24V17.28A20,20,0,0,1,49,17c2.88,0,4.41,1.21,4.41,3.2a2.92,2.92,0,0,1-2.35,3C53.14,23.61,54.08,24.7,54.08,26.47Zm-7.44-8.63V23h2.45c2.62,0,3.64-1.17,3.64-2.72s-1.21-2.54-3.66-2.54A15.23,15.23,0,0,0,46.64,17.84Zm6.68,8.65c0-1.79-1.27-2.86-4.06-2.86H46.64v5.67a21.5,21.5,0,0,0,2.58.18C52,29.47,53.32,28.32,53.32,26.49Z"/><path class="954215f3-71c9-4b0a-8997-c305d147268f" d="M55.35,23.51c0-3.74,2.37-6.64,6-6.64s6.06,2.8,6.06,6.64-2.37,6.62-6.06,6.62S55.35,27.31,55.35,23.51Zm11.33,0c0-3.5-2-5.94-5.29-5.94S56.13,20,56.13,23.51s2,5.92,5.27,5.92S66.68,26.95,66.68,23.51Z"/><path class="954215f3-71c9-4b0a-8997-c305d147268f" d="M77.16,17.82H72.59V29.91a1.15,1.15,0,0,1-.38.06,1.12,1.12,0,0,1-.36-.06V17.82H67.3a1,1,0,0,1,0-.68h9.86a1.1,1.1,0,0,1,.06.34A1,1,0,0,1,77.16,17.82Z"/><path class="0fb4b6c2-6a87-417b-be32-c7c0715d3d8c" d="M3.65,12.61c-1.84,0-2.84-.31-3-.92C.4,10.29,5.26,8.88,6.23,8.61a.24.24,0,0,1,.28.16.23.23,0,0,1-.16.29c-3.74,1-5.3,2.1-5.21,2.54,0,.2.63.55,2.56.55a24.71,24.71,0,0,0,3.11-.23h0a.22.22,0,0,1,.23.2.23.23,0,0,1-.2.26,26.13,26.13,0,0,1-3.22.23Z"/><path class="0fb4b6c2-6a87-417b-be32-c7c0715d3d8c" d="M12.41,11.23a.23.23,0,0,1-.22-.17.23.23,0,0,1,0-.17.23.23,0,0,1,.14-.11c3.49-1,4.95-2,4.86-2.44,0-.2-.63-.55-2.58-.55a25.4,25.4,0,0,0-3.52.28h0a.23.23,0,0,1-.23-.2.23.23,0,0,1,.2-.26,27,27,0,0,1,3.64-.29c1.85,0,2.85.31,3,.92.26,1.31-3.91,2.61-5.19,3Z"/><path class="0fb4b6c2-6a87-417b-be32-c7c0715d3d8c" d="M5.7,11.1c-.91,0-1.37-.15-1.44-.48-.1-.49.84-1,2.8-1.57h.07a.23.23,0,0,1,.22.17.23.23,0,0,1,0,.18.23.23,0,0,1-.14.11,6.14,6.14,0,0,0-2.45,1,2.46,2.46,0,0,0,1,.12,13.79,13.79,0,0,0,1.72-.13h0a.23.23,0,0,1,.24.2.23.23,0,0,1-.2.26,14.84,14.84,0,0,1-1.79.13Z"/><path class="0fb4b6c2-6a87-417b-be32-c7c0715d3d8c" d="M10.94,10.27a.23.23,0,0,1-.22-.17.23.23,0,0,1,0-.18.23.23,0,0,1,.14-.11,6.6,6.6,0,0,0,2.6-1.07,2.68,2.68,0,0,0-1-.12,14.76,14.76,0,0,0-2,.16h0a.23.23,0,0,1-.23-.2.23.23,0,0,1,.2-.26,16.08,16.08,0,0,1,2-.17c.92,0,1.38.15,1.45.48.1.5-.89,1-3,1.61Z"/><path class="0fb4b6c2-6a87-417b-be32-c7c0715d3d8c" d="M17.18,22.92a17.65,17.65,0,0,1-3.7,1.3,17.4,17.4,0,0,1-4,.47h0a14.32,14.32,0,0,1-1.67-.09h0a5.8,5.8,0,0,0,4,1.65,6,6,0,0,0,5.29-3.34Z"/><path class="0fb4b6c2-6a87-417b-be32-c7c0715d3d8c" d="M3.49,30a3.87,3.87,0,0,1,7.74,0Z"/><path class="0fb4b6c2-6a87-417b-be32-c7c0715d3d8c" d="M12.65,30a3.87,3.87,0,0,1,7.73,0Z"/><path class="0fb4b6c2-6a87-417b-be32-c7c0715d3d8c" d="M8.52,20.33a.91.91,0,1,0,.91.91A.91.91,0,0,0,8.52,20.33Zm4.77-.59a.91.91,0,1,0,.92.91A.91.91,0,0,0,13.29,19.74ZM9.8,10.36l.73,2.93h0a5.66,5.66,0,0,1,1.36-.17A6.33,6.33,0,0,1,18,19.69a7,7,0,0,1-.37,2.25l0,0a16.49,16.49,0,0,1-4.24,1.6,15.56,15.56,0,0,1-6.14.27l0,0a6.88,6.88,0,0,1-1.36-4.14A6.59,6.59,0,0,1,9.6,13.61h0l-.73-2.94h0a1,1,0,1,1,.93-.33Z"/></svg>