<?xml version="1.0" encoding="UTF-8" standalone="no"?><!DOCTYPE svg PUBLIC "-//W3C//DTD SVG 1.1//EN" "http://www.w3.org/Graphics/SVG/1.1/DTD/svg11.dtd"><svg width="100%" height="100%" viewBox="0 0 237 100" version="1.1" xmlns="http://www.w3.org/2000/svg" xmlns:xlink="http://www.w3.org/1999/xlink" xml:space="preserve" xmlns:serif="http://www.serif.com/" style="fill-rule:evenodd;clip-rule:evenodd;stroke-linejoin:round;stroke-miterlimit:1.41421;"><g id="Layer-1" serif:id="Layer 1"><path d="M33.37,31.771c-6.566,-5.927 -7.063,-8.15 0.386,-16.426c5.548,-6.164 3.95,-11.819 2.922,-15.619c4.07,2.869 6.542,5.619 6.857,9.353c0.11,1.28 0.164,2.823 -0.238,4.302c-0.643,2.348 -2.059,4.603 -3.349,5.923c-3.635,3.722 -5.972,6.941 -6.443,9.142c-0.116,0.535 -0.171,1.14 -0.201,1.681c-0.039,0.736 0.066,1.644 0.066,1.644Z" style="fill-rule:nonzero;"/><path d="M27.297,24.227c-4.215,-5.011 -5.268,-8.173 -1.729,-11.808c2.342,-2.407 1.777,-5.829 -0.201,-8.083c7.302,3.253 9.044,8.53 5.642,12.291c-1.735,1.914 -2.806,3.443 -3.293,4.932c-0.209,0.637 -0.287,1.056 -0.358,1.571c-0.098,0.702 -0.061,1.097 -0.061,1.097Z" style="fill-rule:nonzero;"/><path d="M37.602,38.216c-4.044,-5.711 -5.029,-10.377 3.31,-17.663c2.129,-1.863 3.884,-3.515 4.94,-5.365c2.027,-3.547 2.111,-7.155 1.726,-9.716c3.713,3.354 4.141,6.482 4.027,10.226c-0.038,1.287 -0.427,2.674 -0.996,4.092c-0.906,2.251 -2.712,4.219 -4.001,5.463c-1.698,1.639 -4.295,3.601 -5.563,5.348c-2.93,4.04 -3.443,7.615 -3.443,7.615Z" style="fill-rule:nonzero;"/><path d="M31.086,42.814c-7.127,-10.572 -25.299,-10.815 -25.299,-10.815l-5.362,-9.326c23.962,1.494 28.675,10.27 30.661,20.141Z" style="fill-rule:nonzero;"/><path d="M43.556,42.814c7.127,-10.572 25.299,-10.815 25.299,-10.815l5.361,-9.326c-23.96,1.494 -28.673,10.272 -30.66,20.141Z" style="fill-rule:nonzero;"/><path d="M36.36,99.657c-2.75,-60.934 -5.081,-61.843 -30.096,-66.193c18.064,6.038 19.603,25.401 22.404,66.193l7.692,0Z" style="fill-rule:nonzero;"/><path d="M38.322,99.657l7.689,0c2.803,-40.792 4.341,-60.155 22.409,-66.193c-25.018,4.35 -27.346,5.259 -30.098,66.193Z" style="fill-rule:nonzero;"/><path d="M91.377,25.356l0,16.729l-2.939,0l0,-16.729l-5.331,0l0,-2.636l13.6,0l0,2.636l-5.33,0Z" style="fill-rule:nonzero;"/><path d="M107.344,25.356l-4.352,0l0,6.067l4.352,0c1.959,0 3.291,-1.115 3.291,-3.018c0,-1.905 -1.332,-3.049 -3.291,-3.049Zm3.401,16.729l-4.081,-8.16l-3.672,0l0,8.16l-2.937,0l0,-19.365l7.507,0c3.671,0 6.01,2.366 6.01,5.656c0,2.776 -1.686,4.543 -3.861,5.14l4.461,8.569l-3.427,0Z" style="fill-rule:nonzero;"/><rect x="117.873" y="22.72" width="2.938" height="19.365" style="fill-rule:nonzero;"/><path d="M137.757,42.085l-8.95,-13.628l0,13.628l-2.935,0l0,-19.365l2.69,0l8.951,13.6l0,-13.6l2.936,0l0,19.365l-2.692,0Z" style="fill-rule:nonzero;"/><rect x="145.512" y="22.72" width="2.936" height="19.365" style="fill-rule:nonzero;"/><path d="M160.064,25.356l0,16.729l-2.939,0l0,-16.729l-5.331,0l0,-2.636l13.599,0l0,2.636l-5.329,0Z" style="fill-rule:nonzero;"/><path d="M175.079,34.116l0,7.969l-2.938,0l0,-7.969l-5.794,-11.396l3.212,0l4.052,8.512l4.051,-8.512l3.209,0l-5.792,11.396Z" style="fill-rule:nonzero;"/><path d="M102.551,70.798l-2.557,0l-3.942,-13.571l-3.918,13.571l-2.555,0l-5.06,-19.364l3.099,0l3.375,13.845l3.889,-13.845l2.366,0l3.889,13.845l3.372,-13.845l3.104,0l-5.062,19.364Z" style="fill-rule:nonzero;"/><path d="M110.44,70.798l0,-19.364l12.379,0l0,2.636l-9.44,0l0,5.658l8.052,0l0,2.61l-8.052,0l0,5.823l9.44,0l0,2.637l-12.379,0Z" style="fill-rule:nonzero;"/><path d="M131.985,70.961c-2.91,0 -5.005,-0.678 -6.853,-2.555l1.958,-1.933c1.415,1.416 2.964,1.851 4.949,1.851c2.531,0 3.998,-1.089 3.998,-2.964c0,-0.845 -0.244,-1.551 -0.76,-2.014c-0.49,-0.461 -0.979,-0.651 -2.123,-0.816l-2.284,-0.326c-1.578,-0.217 -2.828,-0.761 -3.671,-1.552c-0.952,-0.896 -1.415,-2.12 -1.415,-3.697c0,-3.372 2.448,-5.684 6.475,-5.684c2.556,0 4.351,0.652 6.009,2.202l-1.874,1.85c-1.198,-1.143 -2.584,-1.498 -4.217,-1.498c-2.285,0 -3.537,1.305 -3.537,3.021c0,0.706 0.217,1.333 0.734,1.795c0.491,0.435 1.279,0.763 2.176,0.898l2.204,0.325c1.795,0.272 2.8,0.708 3.616,1.444c1.063,0.922 1.58,2.309 1.58,3.971c0,3.562 -2.913,5.682 -6.965,5.682Z" style="fill-rule:nonzero;"/><path d="M149.452,54.07l0,16.728l-2.939,0l0,-16.728l-5.33,0l0,-2.636l13.6,0l0,2.636l-5.331,0Z" style="fill-rule:nonzero;"/><path d="M158.128,70.798l0,-19.364l12.375,0l0,2.636l-9.435,0l0,5.658l8.049,0l0,2.61l-8.049,0l0,5.823l9.435,0l0,2.637l-12.375,0Z" style="fill-rule:nonzero;"/><path d="M181.82,54.07l-4.35,0l0,6.066l4.35,0c1.96,0 3.294,-1.113 3.294,-3.018c0,-1.904 -1.334,-3.048 -3.294,-3.048Zm3.402,16.728l-4.08,-8.158l-3.672,0l0,8.158l-2.934,0l0,-19.364l7.505,0c3.671,0 6.008,2.365 6.008,5.656c0,2.774 -1.685,4.543 -3.864,5.14l4.465,8.568l-3.428,0Z" style="fill-rule:nonzero;"/><path d="M204.236,70.798l-8.949,-13.626l0,13.626l-2.936,0l0,-19.364l2.691,0l8.948,13.601l0,-13.601l2.939,0l0,19.364l-2.693,0Z" style="fill-rule:nonzero;"/><path d="M95.315,99.677c-3.946,0 -6.938,-2.693 -6.938,-6.692l0,-12.836l2.937,0l0,12.699c0,2.584 1.579,4.19 4.001,4.19c2.417,0 4.024,-1.606 4.024,-4.19l0,-12.699l2.938,0l0,12.836c0,3.999 -3.022,6.692 -6.962,6.692Z" style="fill-rule:nonzero;"/><path d="M118.925,99.514l-8.949,-13.628l0,13.628l-2.937,0l0,-19.365l2.691,0l8.95,13.598l0,-13.598l2.938,0l0,19.365l-2.693,0Z" style="fill-rule:nonzero;"/><rect x="126.679" y="80.149" width="2.937" height="19.365" style="fill-rule:nonzero;"/><path d="M140.933,99.514l-2.286,0l-6.366,-19.365l3.048,0l4.461,14.087l4.462,-14.087l3.1,0l-6.419,19.365Z" style="fill-rule:nonzero;"/><path d="M150.016,99.514l0,-19.365l12.375,0l0,2.637l-9.434,0l0,5.657l8.05,0l0,2.61l-8.05,0l0,5.821l9.434,0l0,2.64l-12.375,0Z" style="fill-rule:nonzero;"/><path d="M173.711,82.786l-4.352,0l0,6.064l4.352,0c1.957,0 3.291,-1.115 3.291,-3.018c0,-1.903 -1.334,-3.046 -3.291,-3.046Zm3.4,16.728l-4.081,-8.161l-3.671,0l0,8.161l-2.937,0l0,-19.365l7.505,0c3.674,0 6.013,2.365 6.013,5.654c0,2.776 -1.686,4.544 -3.864,5.142l4.461,8.569l-3.426,0Z" style="fill-rule:nonzero;"/><path d="M189.38,99.677c-2.91,0 -5.005,-0.68 -6.853,-2.556l1.957,-1.934c1.414,1.415 2.964,1.851 4.951,1.851c2.532,0 3.998,-1.09 3.998,-2.965c0,-0.844 -0.246,-1.551 -0.763,-2.014c-0.488,-0.459 -0.978,-0.652 -2.121,-0.814l-2.285,-0.328c-1.575,-0.215 -2.827,-0.76 -3.669,-1.55c-0.954,-0.897 -1.416,-2.12 -1.416,-3.699c0,-3.373 2.447,-5.684 6.473,-5.684c2.558,0 4.349,0.652 6.012,2.204l-1.879,1.847c-1.195,-1.141 -2.58,-1.495 -4.213,-1.495c-2.285,0 -3.538,1.305 -3.538,3.019c0,0.709 0.218,1.334 0.736,1.795c0.487,0.437 1.278,0.765 2.175,0.898l2.202,0.327c1.796,0.271 2.804,0.706 3.618,1.441c1.061,0.925 1.579,2.311 1.579,3.973c0,3.562 -2.911,5.684 -6.964,5.684Z" style="fill-rule:nonzero;"/><rect x="200.29" y="80.149" width="2.936" height="19.365" style="fill-rule:nonzero;"/><path d="M214.842,82.786l0,16.728l-2.937,0l0,-16.728l-5.33,0l0,-2.637l13.598,0l0,2.637l-5.331,0Z" style="fill-rule:nonzero;"/><path d="M229.858,91.543l0,7.971l-2.937,0l0,-7.971l-5.794,-11.394l3.208,0l4.054,8.512l4.052,-8.512l3.212,0l-5.795,11.394Z" style="fill-rule:nonzero;"/></g></svg>