<?xml version="1.0" encoding="UTF-8" standalone="no"?><!DOCTYPE svg PUBLIC "-//W3C//DTD SVG 1.1//EN" "http://www.w3.org/Graphics/SVG/1.1/DTD/svg11.dtd"><svg width="100%" height="100%" viewBox="0 0 1077 757" version="1.1" xmlns="http://www.w3.org/2000/svg" xmlns:xlink="http://www.w3.org/1999/xlink" xml:space="preserve" xmlns:serif="http://www.serif.com/" style="fill-rule:evenodd;clip-rule:evenodd;stroke-miterlimit:10;"><path d="M663.83,91.84c-46.25,32.38 -106.24,30.29 -158.81,13.44c-52.57,-16.85 -100.86,-46.85 -152.08,-68.17c-42.69,-17.806 -87.67,-29.53 -133.62,-34.83c-65.28,-7.47 -138.18,1.63 -183.66,54c-50.65,58.29 -46.76,163.45 8,217c27.87,27.22 64.36,40.58 96.18,61.83c31.82,21.25 61.3,56.52 58.59,97.52c-2.51,38 -31.68,67.12 -61.87,85.41c-23.33,14.13 -52.06,29.56 -54.87,58.83c-2.72,28.32 21.44,50.51 44.51,63.13c75.26,41.18 168,40.78 243,-1c26.74,-14.95 51.3,-34.79 79.35,-46.37c73.65,-30.52 154.81,0.21 232.8,11.44c66.266,9.493 133.807,4.578 198,-14.41c38.62,-11.41 77.39,-28.85 104.52,-61.34c19.57,-23.43 31.76,-53.07 43.2,-82.36c12.2,-31.22 23.93,-62.663 35.19,-94.33c6.75,-19 13.4,-38.38 15.15,-58.72c3.16,-36.85 -10.16,-73.28 -28.3,-104.38c-43.07,-73.9 -115.61,-125.82 -194.17,-139.01c-78.56,-13.19 -161.67,12.57 -222.6,68.94" style="fill:#88ae3d;fill-opacity:0.1;fill-rule:nonzero;"/><path d="M540.65,103.4l-3.81,221c0,0 137.92,0 255.27,38.1l2.28,-223.26c0,0 -188.21,-44.99 -253.74,-35.84Z" style="fill-opacity:0.1;fill-rule:nonzero;"/><path d="M537.65,99.4l-3.81,221c0,0 137.92,0 255.27,38.1l2.28,-223.26c0,0 -188.21,-44.99 -253.74,-35.84Z" style="fill:#f7f7fd;fill-rule:nonzero;"/><path d="M471.41,109.73l3.81,221c0,0 -137.92,0 -255.26,38.1l-2.29,-223.26c0,0 188.21,-44.94 253.74,-35.84Z" style="fill-opacity:0.1;fill-rule:nonzero;"/><path d="M474.41,104.73l3.81,221c0,0 -137.92,0 -255.26,38.1l-2.29,-223.26c0,0 188.21,-44.94 253.74,-35.84Z" style="fill:#f7f7fd;fill-rule:nonzero;"/><path d="M412.46,130.51l2.05,118.51c0,0 -74,0 -136.9,20.43l-1.23,-119.73c0,0 100.94,-24.09 136.08,-19.21Z" style="fill:#88ae3d;fill-opacity:0.2;fill-rule:nonzero;"/><path d="M875.68,184.69l0,218.69c0,0 45,-5.34 139.45,111.25l8.38,-218.69c0,0 -98.3,-105.92 -147.83,-111.25Z" style="fill-opacity:0.1;fill-rule:nonzero;"/><path d="M873.68,181.69l0,218.69c0,0 45,-5.34 139.45,111.25l8.38,-218.69c0,0 -98.3,-105.92 -147.83,-111.25Z" style="fill:#f7f7fd;fill-rule:nonzero;"/><path d="M148.33,185.69l0,218.69c0,0 -44.96,-5.34 -139.39,111.25l-8.43,-218.69c0,0 98.29,-105.92 147.82,-111.25Z" style="fill-opacity:0.1;fill-rule:nonzero;"/><path d="M151.33,181.69l0,218.69c0,0 -44.96,-5.34 -139.39,111.25l-8.43,-218.69c0,0 98.29,-105.92 147.82,-111.25Z" style="fill:#f7f7fd;fill-rule:nonzero;"/><path d="M574.5,145.37l93.43,16.71l0,13.61l-93.43,-17.94l0,-12.38Z" style="fill:#88ae3d;fill-opacity:0.2;fill-rule:nonzero;"/><path d="M394.5,276.87l-93.42,16.71l0,13.61l93.42,-17.94l0,-12.38Z" style="fill:#fff;fill-rule:nonzero;"/><path d="M575.74,170.74l170.76,35.27l0,13.61l-170.76,-36.5l0,-12.38Z" style="fill:#fff;fill-rule:nonzero;"/><path d="M575.74,196.11l170.76,35.26l0,13.62l-170.76,-36.51l0,-12.37Z" style="fill:#fff;fill-rule:nonzero;"/><path d="M913.5,252.31l0,12.01l36.63,29.76l1.72,-10.3l-38.35,-31.47Z" style="fill:#88ae3d;fill-opacity:0.2;fill-rule:nonzero;"/><path d="M913.5,368.31l0,12.01l36.63,29.76l1.72,-10.3l-38.35,-31.47Z" style="fill:#fff;fill-rule:nonzero;"/><path d="M914.08,272.91l-0.58,12.02l69.25,65.23l-1.14,-13.73l-67.53,-63.52Z" style="fill:#fff;fill-rule:nonzero;"/><path d="M913.5,295.23l0,11.44l69.25,66.39l0,-14.88l-69.25,-62.95Z" style="fill:#fff;fill-rule:nonzero;"/><path d="M110.93,254.91l0.57,12.02l-69.24,65.23l1.14,-13.73l67.53,-63.52Z" style="fill:#88ae3d;fill-opacity:0.2;fill-rule:nonzero;"/><path d="M111.5,277.23l0,11.44l-69.24,66.39l0,-14.88l69.24,-62.95Z" style="fill:#88ae3d;fill-opacity:0.2;fill-rule:nonzero;"/><ellipse cx="204.61" cy="621.88" rx="57" ry="10.26" style="fill:#88ae3d;fill-opacity:0.1;"/><path d="M69.43,565.47c0,0 5.49,7.18 -2.54,18c-8.03,10.82 -14.65,20 -12,26.76c0,0 12.11,-20.14 22,-20.42c9.89,-0.28 3.39,-12.18 -7.46,-24.34Z" style="fill:#88ae3d;fill-rule:nonzero;"/><path d="M69.43,565.47c0.481,0.691 0.858,1.449 1.12,2.25c9.62,11.3 14.75,21.85 5.5,22.12c-8.61,0.24 -19,15.65 -21.42,19.54c0.08,0.29 0.18,0.59 0.29,0.88c0,0 12.11,-20.14 22,-20.42c9.89,-0.28 3.36,-12.21 -7.49,-24.37Z" style="fill-opacity:0.1;fill-rule:nonzero;"/><path d="M79.64,574.63c0,2.53 -0.28,4.58 -0.63,4.58c-0.35,0 -0.64,-2.05 -0.64,-4.58c0,-2.53 0.36,-1.34 0.71,-1.34c0.35,0 0.56,-1.2 0.56,1.34Z" style="fill:#ffd037;fill-rule:nonzero;"/><path d="M83.15,577.63c-2.22,1.21 -4.16,1.94 -4.33,1.64c-0.17,-0.3 1.5,-1.54 3.72,-2.75c2.22,-1.21 1.34,-0.33 1.51,0c0.17,0.33 1.32,-0.09 -0.9,1.11Z" style="fill:#ffd037;fill-rule:nonzero;"/><path d="M40.41,565.47c0,0 -5.47,7.16 2.53,18.03c8,10.87 14.65,20 12,26.76c0,0 -12.11,-20.14 -22,-20.42c-9.89,-0.28 -3.37,-12.21 7.47,-24.37Z" style="fill:#88ae3d;fill-rule:nonzero;"/><path d="M40.41,565.47c-0.477,0.694 -0.854,1.451 -1.12,2.25c-9.62,11.3 -14.75,21.85 -5.5,22.12c8.62,0.24 19,15.65 21.42,19.54c-0.079,0.299 -0.175,0.593 -0.29,0.88c-0.115,0.287 -12.11,-20.14 -22,-20.42c-9.89,-0.28 -3.35,-12.21 7.49,-24.37Z" style="fill-opacity:0.1;fill-rule:nonzero;"/><path d="M30.2,574.63c0,2.53 0.28,4.58 0.63,4.58c0.35,0 0.64,-2.05 0.64,-4.58c0,-2.53 -0.36,-1.34 -0.71,-1.34c-0.35,0 -0.56,-1.2 -0.56,1.34Z" style="fill:#ffd037;fill-rule:nonzero;"/><path d="M26.7,577.63c2.22,1.21 4.15,1.94 4.32,1.64c0.17,-0.3 -1.5,-1.54 -3.72,-2.75c-2.22,-1.21 -1.34,-0.33 -1.51,0c-0.17,0.33 -1.31,-0.09 0.91,1.11Z" style="fill:#ffd037;fill-rule:nonzero;"/><path d="M31.94,609.32c0,0 15.36,-0.47 20,-3.77c4.64,-3.3 23.62,-7.23 24.77,-1.94c1.15,5.29 23.08,26.29 5.74,26.43c-17.34,0.14 -40.29,-2.7 -44.91,-5.52c-4.62,-2.82 -5.6,-15.2 -5.6,-15.2Z" style="fill:#a8a8a8;fill-rule:nonzero;"/><path d="M82.76,628.2c-17.34,0.14 -40.29,-2.7 -44.91,-5.52c-3.52,-2.14 -4.92,-9.83 -5.39,-13.38l-0.51,0c0,0 1,12.39 5.59,15.2c4.59,2.81 27.57,5.66 44.91,5.52c5,0 6.74,-1.82 6.64,-4.46c-0.69,1.61 -2.6,2.61 -6.33,2.64Z" style="fill-opacity:0.2;fill-rule:nonzero;"/><ellipse cx="600.5" cy="470.71" rx="94" ry="16.1" style="fill:#88ae3d;fill-opacity:0.1;"/><path d="M581.54,253.42c-0.459,0.978 -0.795,2.009 -1,3.07c-0.06,0.267 -0.12,0.547 -0.18,0.84c-0.6,3.06 -1,6.91 -1.21,9.15c-0.1,1.12 -0.15,1.84 -0.15,1.84c0,0 -21.69,-1.45 -17.93,-5.09c0.969,-1.005 1.659,-2.246 2,-3.6c0.11,-0.39 0.2,-0.78 0.28,-1.18c0.179,-0.908 0.296,-1.826 0.35,-2.75c0,-0.23 0,-0.46 0,-0.7c0.049,-1.5 -0.021,-3.001 -0.21,-4.49c-0.189,-1.489 7.05,0 12.37,0.57c3.58,0.41 6.37,1.12 5.68,2.34Z" style="fill:#d38884;fill-rule:nonzero;"/><path d="M543.94,356.63c-7.39,-0.24 -1.94,-15.63 -1.09,-17.7c0.85,-2.07 -1.26,-7.14 -1.26,-7.14c0,0 -2.5,-14.66 -2.5,-15.62c-0.128,-1.999 -0.408,-3.984 -0.84,-5.94c-0.26,-1.996 0.089,-4.025 1,-5.82c0.85,-1.33 0.72,-6.66 0.72,-6.66l0,-6.9l1.65,-2.18l4.21,4l1.17,1.1l2.06,7.72l-0.73,11.06l-0.39,10.77l2.55,14.9c0,0 0.89,18.66 -6.55,18.41Z" style="fill:#d38884;fill-rule:nonzero;"/><path d="M546.28,294.5l-6.3,-2.62l0,-1.02l1.64,-2.18l4.22,3.98l0.44,1.84Z" style="fill-opacity:0.1;fill-rule:nonzero;"/><path d="M543.38,278.74c-0.81,1.989 -1.397,4.062 -1.75,6.18c-0.326,2.032 -0.879,4.022 -1.65,5.93l7,2.91l-3.6,-15.02Z" style="fill:#4c4981;fill-rule:nonzero;"/><path d="M543.38,278.74c-0.81,1.989 -1.397,4.062 -1.75,6.18c-0.326,2.032 -0.879,4.022 -1.65,5.93l7,2.91l-3.6,-15.02Z" style="fill-opacity:0.05;fill-rule:nonzero;"/><path d="M599.14,431.73l-0.58,1.24c0,0 -0.63,4.11 -0.63,4.21c0,0.1 -1.82,2.84 -1.82,2.84l-4.57,1l-1.94,-0.24c-0.103,-1.13 -0.277,-2.252 -0.52,-3.36c-0.07,-0.31 -0.14,-0.63 -0.23,-0.95c-0.683,-2.564 -1.759,-5.006 -3.19,-7.24c-1.431,-2.234 -3.39,-8.36 -4.6,-9.45c-1.21,-1.09 -5.82,-12.12 -5.33,-14.78c0.26,-1.46 0.05,-6.36 -0.19,-10.44c-0.2,-3.33 -0.42,-6.13 -0.42,-6.13l11.51,-6.8l1.34,2.11l0.8,1.25c0,0 0,0.24 -0.05,0.64l0,0.15c-0.132,1.701 -0.468,3.379 -1,5c-0.532,1.621 -0.86,6.18 0,7.27c0.86,1.09 3.6,15.66 4.21,22.4c0,0.21 0,0.42 0,0.61c0.24,3.1 2.16,5.86 4.09,7.88c0.12,0.14 0.25,0.27 0.38,0.4c0.857,0.859 1.773,1.657 2.74,2.39Z" style="fill:#d38884;fill-rule:nonzero;"/><path d="M589.6,440.76l1.94,0.24l4.57,-1c0,0 1.82,-2.75 1.82,-2.84c0,-0.09 0.63,-4.21 0.63,-4.21l0.58,-1.24l0.07,-0.15c-1.117,-0.774 -2.168,-1.64 -3.14,-2.59c-0.11,-0.1 -0.22,-0.2 -0.32,-0.31c-0.1,-0.11 0.65,4 -2.83,5.79c-1.69,0.87 -3.08,1.54 -4.05,2l0.73,4.31Z" style="fill-opacity:0.1;fill-rule:nonzero;"/><path d="M599.94,432.31l-0.65,1.39c0,0 -0.63,4.11 -0.63,4.21c0,0.1 -1.82,2.84 -1.82,2.84l-4.57,1l-2.63,-0.31c0,-0.53 -0.09,-1.28 -0.22,-2.19c-0.08,-0.55 -0.19,-1.16 -0.34,-1.82c1,-0.45 2.55,-1.19 4.54,-2.22c3.49,-1.79 2.83,-5.79 2.83,-5.79c0.755,0.752 1.553,1.46 2.39,2.12c0.48,0.34 0.87,0.61 1.1,0.77Z" style="fill:#ceddf9;fill-rule:nonzero;"/><path d="M599.94,432.31l-0.65,1.39c0,0 -0.63,4.11 -0.63,4.21c0,0.1 -1.82,2.84 -1.82,2.84l-4.57,1l-2.63,-0.31c0,-0.53 -0.09,-1.28 -0.22,-2.19c0.559,0.026 1.115,0.102 1.66,0.23c0.545,0.128 6.24,1.33 6.54,-3.61c0.18,-2.8 0.76,-3.9 1.22,-4.33c0.48,0.34 0.87,0.61 1.1,0.77Z" style="fill-opacity:0.1;fill-rule:nonzero;"/><path d="M599.48,431.98c0,0 -1.55,-0.34 -1.86,4.59c-0.31,4.93 -6.54,3.61 -6.54,3.61c0,0 -3.06,-0.76 -3.09,0.51c0.102,1.174 0.379,2.327 0.82,3.42c0.441,1.093 0.18,2.94 0.76,3.64c0.58,0.7 0.21,3.3 0.21,3.3c0,0 0.24,1.94 5.06,0c0,0 4.3,-0.89 7.87,-6.24c0.12,-0.18 -0.42,-0.73 2.7,-1.85c3.12,-1.12 12,-8.3 11.36,-11.81c-0.141,-1.185 -0.976,-2.178 -2.12,-2.52c-0.943,-0.251 -1.949,-0.115 -2.79,0.38c-0.843,0.456 -1.715,0.857 -2.61,1.2c-1.188,0.481 -2.442,0.781 -3.72,0.89c-0.98,0.084 -1.948,0.268 -2.89,0.55c-1.004,0.392 -2.096,0.506 -3.16,0.33Z" style="fill:#cc8294;fill-rule:nonzero;"/><path d="M564.16,398.04c-0.688,0.57 -1.282,1.245 -1.76,2c-1.76,2.69 -2.82,6.45 -4,8.07c-1.54,2.1 -2,6.18 -2,6.18c-0.41,2.68 -6.09,17 -7.63,19.54c-1.54,2.54 -3.68,9.45 -3.68,9.45c-1.31,1.64 -1.23,4.08 -1.1,5.24c0,0.2 0,0.36 0.06,0.47c0.06,0.11 0,0.19 0,0.19l0,0.07l-2.1,3.57l-6.68,-0.93l-3.45,-2.34c0.283,-0.459 0.533,-0.937 0.75,-1.43c1.85,-4.12 3.16,-11.48 3.16,-11.48c0,0 1.86,-8.4 1.72,-10.36c0.047,-2.674 0.23,-5.344 0.55,-8c0.32,-2.656 5.26,-16.05 6.94,-18.65c0.7,-1.027 1.133,-2.213 1.26,-3.45c0.032,-0.249 0.032,-0.501 0,-0.75l2.26,-2.25c0,0 18.6,2.55 15.7,4.86Z" style="fill:#d38884;fill-rule:nonzero;"/><path d="M544.12,448.48l0,0.79l-2.1,3.57l-6.68,-0.93l-3.45,-2.34c0.283,-0.459 0.533,-0.937 0.75,-1.43c1.68,-0.48 5.52,0.88 5.52,0.88c0,0 4.15,0.79 5.9,-0.48c0,-0.01 0.02,-0.04 0.06,-0.06Z" style="fill-opacity:0.1;fill-rule:nonzero;"/><path d="M542.49,458.01l-6.78,1.62l-6.22,-4.6l0.32,-2.59c0.434,-0.266 0.82,-0.604 1.14,-1c0.454,-0.533 0.764,-1.173 0.9,-1.86c0.36,-1.91 6.27,0.18 6.27,0.18c0,0 4.32,0.82 6,-0.55c-0.118,1.256 -0.01,2.523 0.32,3.74c0.16,0.593 0.512,1.117 1,1.49c1.73,1.19 -2.95,3.57 -2.95,3.57Z" style="fill:#ceddf9;fill-rule:nonzero;"/><path d="M542.49,458.01l-6.78,1.62l-6.22,-4.6l0.32,-2.59c0.434,-0.266 0.82,-0.604 1.14,-1c0.45,0 0.94,0 1.36,0c1,0.1 3.5,4.55 3.5,4.55c6.14,0.41 8,-1.6 8.63,-3.08c0.16,0.593 0.512,1.117 1,1.49c1.73,1.23 -2.95,3.61 -2.95,3.61Z" style="fill-opacity:0.1;fill-rule:nonzero;"/><path d="M535.81,456.74c0,0 -2.46,-4.45 -3.5,-4.54c-0.879,-0.049 -1.761,-0.049 -2.64,0c-0.879,0.049 -2.72,6.45 -3.72,7c-1,0.55 -2.46,3.64 -2.46,3.64c0,0 7.2,7 14.16,5.63c2.221,0.032 4.404,0.576 6.38,1.59c3.22,1.68 16.67,0.41 18.31,-2.54c1.22,-2.22 1.71,-3.83 0.63,-5c-0.654,-0.678 -1.598,-0.999 -2.53,-0.86c-1.69,0.23 -5.49,0.19 -8.82,-3.9c0,0 -6.14,-5.62 -6.64,-5.63c-0.5,-0.01 0.41,5.25 -9.17,4.61Z" style="fill:#cc8294;fill-rule:nonzero;"/><path d="M588.78,385.72l-0.05,0.06c-0.42,0.46 -3.38,3.71 -4.28,3.94c-1.488,0.562 -2.944,1.206 -4.36,1.93c-1.416,0.724 -1.82,2.43 -3.27,2.55c-0.438,0.063 -0.868,0.177 -1.28,0.34c-0.2,-3.33 -0.42,-6.13 -0.42,-6.13l11.51,-6.78l1.34,2.11c0.3,0.85 0.64,1.64 0.75,1.89l0.06,0.09Z" style="fill-opacity:0.1;fill-rule:nonzero;"/><path d="M546.94,338.93c0,0 -4.48,5.84 0,13.59c2.41,4.357 5.521,8.286 9.21,11.63l15.26,31.62c0,0 4,-2.18 5.46,-2.3c1.46,-0.12 3.27,-2.54 3.27,-2.54c1.416,-0.728 2.871,-1.376 4.36,-1.94c1,-0.24 4.33,-4 4.33,-4c0,0 -1.67,-3.63 -1.3,-4.6c0.37,-0.97 -1.09,-3.4 -1.09,-3.4c-0.454,-1.215 -0.789,-2.471 -1,-3.75c0,-1 -1.58,-3.27 -1.58,-3.27c0,0 -1.57,-2.43 -1.57,-3.76c0,-1.33 -2.35,-6.58 -2.35,-6.58l-0.61,-23l-32.39,2.3Z" style="fill:#ceddf9;fill-rule:nonzero;"/><path d="M588.78,384.99c0,0 -3.36,3.75 -4.33,4c-1.489,0.564 -2.944,1.212 -4.36,1.94c-1.416,0.728 -1.82,2.42 -3.27,2.54c-1.044,0.217 -2.054,0.577 -3,1.07c-1.3,0.59 -2.47,1.23 -2.47,1.23l-15.27,-31.62c-1.337,-1.165 -2.577,-2.436 -3.71,-3.8c-2.068,-2.437 -3.909,-5.058 -5.5,-7.83c-1.749,-2.81 -2.371,-6.181 -1.74,-9.43c0.284,-1.49 0.876,-2.904 1.74,-4.15l10.86,-0.77l21.63,-1.54l0.18,6.81l0.4,16.19c0,0 0.35,0.81 0.79,1.88c0.687,1.488 1.194,3.052 1.51,4.66c0,1.34 1.57,3.76 1.57,3.76c0,0 1.58,2.3 1.58,3.27c0.212,1.282 0.547,2.542 1,3.76c0.453,1.218 1.46,2.42 1.1,3.38c-0.36,0.96 1.29,4.65 1.29,4.65Z" style="fill-opacity:0.05;fill-rule:nonzero;"/><path d="M564.16,398.04c-0.688,0.57 -1.282,1.245 -1.76,2c-6.59,0.48 -14.25,-3 -16.24,-3.92c0.032,-0.249 0.032,-0.501 0,-0.75l2.26,-2.25c0,0 18.64,2.61 15.74,4.92Z" style="fill-opacity:0.1;fill-rule:nonzero;"/><path d="M583.6,346.1c0,0 -1,3.39 -1.33,4.84c-0.33,1.45 -1.09,8.61 -1.09,8.61l-0.42,2l-6.92,33l-1.51,7.17c-2.66,1.46 -9.32,-2.43 -9.32,-2.43c-7.76,0.86 -17.33,-4.11 -17.33,-4.11c0,0 1.57,-5.09 1.21,-7.63c-0.36,-2.54 2.18,-4.61 2.18,-4.61c-0.6,-2.3 1.57,-12.36 1.57,-12.36c0,0 0.49,-3.75 2.31,-4.72c1.82,-0.97 -0.24,-2.42 -0.73,-3.28c-0.172,-0.74 -0.113,-1.515 0.17,-2.22c0.157,-0.56 0.344,-1.11 0.56,-1.65c-4.62,-4.62 -5.33,-11.84 -5.34,-15.85c-0.013,-0.978 0.031,-1.957 0.13,-2.93l10,-1.75l21.85,-3.82l2.23,6.86l0.56,1.72l1.22,3.16Z" style="fill:#ceddf9;fill-rule:nonzero;"/><path d="M581.54,253.42c-0.459,0.978 -0.795,2.009 -1,3.07c-0.06,0.267 -0.12,0.547 -0.18,0.84c-2.11,1.37 -3.41,1.38 -6.11,1.38c-0.93,0 -1.45,-1.78 -2.33,-2c0,0 -1.32,-4.76 -1.69,-0.75c-2.54,-0.52 -4.73,1.46 -6.53,-0.27c0,-0.23 0,-0.46 0,-0.7c0.049,-1.5 -0.021,-3.001 -0.21,-4.49c-0.189,-1.489 7.05,0 12.37,0.57c3.58,0.42 6.37,1.13 5.68,2.35Z" style="fill-opacity:0.1;fill-rule:nonzero;"/><path d="M586.54,245.26c-0.011,7.409 -6.111,13.5 -13.52,13.5c-0.903,0 -1.805,-0.09 -2.69,-0.27c-6.25,-1.288 -10.775,-6.841 -10.775,-13.222c0,-7.406 6.094,-13.5 13.5,-13.5c4.863,0 9.364,2.627 11.755,6.862c1.147,2.02 1.744,4.307 1.73,6.63Z" style="fill:#d38884;fill-rule:nonzero;"/><path d="M579.15,266.48c-0.1,1.12 -0.15,1.84 -0.15,1.84c0,0 -21.69,-1.45 -17.93,-5.09c0.969,-1.005 1.659,-2.246 2,-3.6l9.41,1.54c0,0 2.66,2.06 4.72,4c0.587,0.524 1.243,0.965 1.95,1.31Z" style="fill-opacity:0.1;fill-rule:nonzero;"/><path d="M582.39,343.63c-0.954,0.127 -1.925,0.055 -2.85,-0.21c-0.401,-0.128 -0.786,-0.299 -1.15,-0.51c-1.82,-1.09 -7.87,0.25 -7.87,0.25c0,0 -16.48,1.09 -17.21,0c-0.41,-0.63 -3.32,-0.54 -5.7,-0.35c-1,0.08 -1.85,0.18 -2.46,0.24c0.284,-1.49 0.876,-2.904 1.74,-4.15l10.86,-0.77l21.85,-3.82l2.23,6.86c0.145,0.829 0.331,1.65 0.56,2.46Z" style="fill-opacity:0.1;fill-rule:nonzero;"/><path d="M572.45,261.9l-11.82,-1.94c-0.422,0.942 -1.239,1.652 -2.23,1.94c-1.57,0.36 -8.6,4 -11.75,8.36l-3.15,4.37c0,0 -2.55,3.15 -1.7,5.69c0.85,2.54 1.82,11.15 1.82,11.15l1.21,9.57c0,0 2.3,6.91 1.58,9.94c-0.72,3.03 0.36,15.75 0.36,15.75l-2.42,15.75c0,0 8.23,-1.09 9,0c0.77,1.09 17.21,0 17.21,0c0,0 6,-1.34 7.87,-0.25c1.223,0.659 2.623,0.915 4,0.73c1.377,-0.185 -1.45,-5 -0.61,-7.75c0.84,-2.75 0.61,-7.88 0.61,-7.88c0,0 1.21,-7.39 0.6,-8.72c-0.61,-1.33 1.34,-6.18 1.34,-6.18l6.42,-33.8c0,0 -0.78,-6.06 -4.21,-8.12c-3.43,-2.06 -7.3,-2.67 -9.36,-4.6c-2.06,-1.93 -4.77,-4.01 -4.77,-4.01Z" style="fill:#4c4981;fill-rule:nonzero;"/><path d="M577.94,295.22l0,4l3.73,10.06l1.35,9.33c0,0 2.43,6.66 2.43,9c0,2.34 5.93,13.45 5.93,13.45c0,0 1.62,3.76 0.81,4.48c-0.81,0.72 -7.83,16.72 1,16.24c8.83,-0.48 6.06,-17.2 6.06,-17.2l-1.21,-7.27c0,0 -1.7,-18.18 -1.7,-19.51c0,0 -2.18,-7.75 -2.42,-9.45c-0.24,-1.7 -1.82,-10.3 -1.82,-10.3l-1.33,-5.57l-12.83,2.74Z" style="fill:#d38884;fill-rule:nonzero;"/><path d="M573.69,307.82l-13.17,7.54l-4.09,6.18l5.45,-5.54l11.81,-8.18Z" style="fill-opacity:0.1;fill-rule:nonzero;"/><path d="M569.7,322.26c0,0 -6,3.91 -8.82,3.91c-2.82,0 -9.36,6.72 -9.36,6.72c0,0 9.27,-6 10,-5.81c0.73,0.19 8.18,-4.82 8.18,-4.82Z" style="fill-opacity:0.1;fill-rule:nonzero;"/><path d="M554.34,324.35c0,0 -5.63,5.09 -4.18,5.64c1.45,0.55 9,-5.64 9,-5.64l-4.82,0Z" style="fill-opacity:0.1;fill-rule:nonzero;"/><path d="M579.24,306.18c0,0 -4.36,5.91 -3.18,5.82c1.18,-0.09 4.54,-3.46 4.54,-3.46l-1.36,-2.36Z" style="fill-opacity:0.1;fill-rule:nonzero;"/><path d="M579.87,312c0,0 -4.72,5.36 -4.54,6.72c0.18,1.36 4.54,-6.72 4.54,-6.72Z" style="fill-opacity:0.1;fill-rule:nonzero;"/><path d="M581.06,314.68c0,0 -3.18,5.68 -1.82,6.86c1.36,1.18 1.82,-6.86 1.82,-6.86Z" style="fill-opacity:0.1;fill-rule:nonzero;"/><path d="M576.94,300.09c0,0 -2.37,4 -0.64,4.27c1.73,0.27 1.9,0 1.9,0l-1.26,-4.27Z" style="fill-opacity:0.1;fill-rule:nonzero;"/><path d="M577.6,285.46c-0.59,2.445 -1.4,4.831 -2.42,7.13c-0.38,-1.172 -0.693,-2.363 -0.94,-3.57c0.998,-1.296 2.123,-2.489 3.36,-3.56Z" style="fill-opacity:0.1;fill-rule:nonzero;"/><path d="M584.81,238.63c-0.234,0.511 -0.541,0.986 -0.91,1.41c-0.62,0.559 -1.17,1.19 -1.64,1.88c-0.37,1.031 -0.569,2.115 -0.59,3.21c-0.18,1.08 -0.86,2.28 -2,2.31c-0.561,-0.047 -1.106,-0.211 -1.6,-0.48c-0.502,-0.26 -1.105,-0.241 -1.59,0.05c-0.316,0.321 -0.498,0.75 -0.51,1.2c-0.138,0.94 -0.192,1.89 -0.16,2.84c0,0.38 0,0.75 0.06,1.13c0.279,1.195 0.206,2.446 -0.21,3.6c-0.522,0.836 -1.312,1.47 -2.24,1.8c-1.008,0.416 -2.062,0.711 -3.14,0.88c-2.053,0.252 -4.125,0.319 -6.19,0.2c-0.191,0.005 -0.381,-0.025 -0.56,-0.09c-0.088,-0.035 -0.17,-0.086 -0.24,-0.15c0.229,-1.136 0.353,-2.291 0.37,-3.45c-2.618,-2.541 -4.096,-6.038 -4.096,-9.686c0,-7.406 6.094,-13.5 13.5,-13.5c4.856,0 9.352,2.62 11.746,6.846Z" style="fill-opacity:0.1;fill-rule:nonzero;"/><path d="M579.17,227.2c-1.24,-0.13 -2.41,0.53 -3.63,0.8c-2.51,0.55 -5.08,-0.59 -7.66,-0.58c-2.218,0.126 -4.376,0.77 -6.3,1.88c-1.556,0.735 -2.976,1.729 -4.2,2.94c-1.229,1.23 -1.944,2.883 -2,4.62c0.171,0.996 0.14,2.016 -0.09,3c-0.26,0.496 -0.568,0.965 -0.92,1.4c-0.646,1.037 -0.803,2.307 -0.43,3.47c0.517,1.139 1.216,2.186 2.07,3.1c1.66,2.13 2.7,4.68 4.19,6.94c0.65,0.981 1.379,1.908 2.18,2.77c0.131,0.153 0.291,0.279 0.47,0.37c0.176,0.062 0.363,0.089 0.55,0.08c3.16,0.09 6.43,0.16 9.34,-1.08c0.932,-0.323 1.724,-0.959 2.24,-1.8c0.42,-1.153 0.496,-2.404 0.22,-3.6c-0.132,-1.332 -0.102,-2.675 0.09,-4c0.013,-0.447 0.195,-0.873 0.51,-1.19c0.485,-0.301 1.097,-0.32 1.6,-0.05c0.494,0.26 1.034,0.423 1.59,0.48c1.09,0 1.78,-1.24 2,-2.32c-0.244,-1.974 0.613,-3.931 2.23,-5.09c1.518,-1.927 2.028,-4.467 1.37,-6.83c-0.72,-2.25 -2.92,-5.06 -5.42,-5.31Z" style="fill:#1e1637;fill-rule:nonzero;"/><path d="M592.14,284.63c-0.266,1.656 -0.266,3.344 0,5c-0.12,1.34 0,8.73 0,8.73c-4,-1.22 -14.17,1.21 -14.17,1.21l-1.21,-3.63c-0.691,-0.896 -1.206,-1.913 -1.52,-3c-0.38,-1.175 -0.693,-2.37 -0.94,-3.58c-0.528,-2.514 -0.925,-5.054 -1.19,-7.61c-0.51,-3.85 5.22,-8 9.56,-10.3c4.34,-2.3 8.14,7.51 8.14,7.51c0,0 1.81,3.77 1.33,5.67Z" style="fill-opacity:0.1;fill-rule:nonzero;"/><path d="M592.14,283.94c-0.266,1.656 -0.266,3.344 0,5c-0.12,1.33 0,8.72 0,8.72c-4,-1.21 -14.17,1.21 -14.17,1.21l-1.21,-3.63c-0.693,-0.894 -1.209,-1.913 -1.52,-3c-0.38,-1.172 -0.693,-2.363 -0.94,-3.57c-0.527,-2.515 -0.924,-5.055 -1.19,-7.61c-0.51,-3.86 5.22,-8 9.56,-10.31c4.34,-2.31 8.14,7.51 8.14,7.51c0,0 1.81,3.74 1.33,5.68Z" style="fill:#4c4981;fill-rule:nonzero;"/><path d="M584.45,232.51c-0.208,-0.687 -0.507,-1.343 -0.89,-1.95c0.06,0.17 0.12,0.33 0.17,0.5c0.658,2.363 0.148,4.903 -1.37,6.83c-1.617,1.159 -2.474,3.116 -2.23,5.09c-0.17,1.08 -0.86,2.27 -2,2.31c-0.561,-0.047 -1.106,-0.211 -1.6,-0.48c-0.502,-0.26 -1.105,-0.241 -1.59,0.05c-0.316,0.321 -0.498,0.75 -0.51,1.2c-0.193,1.325 -0.223,2.668 -0.09,4c0.11,1.22 0.35,2.53 -0.22,3.61c-0.527,0.831 -1.315,1.464 -2.24,1.8c-2.91,1.24 -6.18,1.17 -9.34,1.08c-0.187,0.006 -0.374,-0.025 -0.55,-0.09c-0.183,-0.085 -0.344,-0.212 -0.47,-0.37c-0.809,-0.855 -1.539,-1.782 -2.18,-2.77c-1.49,-2.26 -2.53,-4.8 -4.19,-6.94c-0.45,-0.58 -1,-1.15 -1.37,-1.76l0,0.12c0.51,1.143 1.21,2.191 2.07,3.1c1.65,2.13 2.7,4.68 4.18,6.94c0.65,0.984 1.383,1.91 2.19,2.77c0.127,0.153 0.284,0.278 0.46,0.37c0.177,0.061 0.363,0.089 0.55,0.08c3.16,0.09 6.44,0.16 9.34,-1.08c0.932,-0.323 1.724,-0.959 2.24,-1.8c0.42,-1.153 0.496,-2.404 0.22,-3.6c-0.122,-1.332 -0.092,-2.674 0.09,-4c0.021,-0.445 0.202,-0.868 0.51,-1.19c0.485,-0.301 1.097,-0.32 1.6,-0.05c0.494,0.26 1.034,0.423 1.59,0.48c1.1,0 1.78,-1.24 2,-2.32c0.016,-1.095 0.216,-2.18 0.59,-3.21c0.467,-0.692 1.017,-1.324 1.64,-1.88c1.529,-1.925 2.049,-4.469 1.4,-6.84Z" style="fill-opacity:0.2;fill-rule:nonzero;"/><path d="M681.94,235.14l-8.64,18.36c0,0 -1.27,3.45 -2.09,4.09c-0.82,0.64 -4.45,11.54 -4.45,11.54l-9.27,14.28l-0.63,1l-3.63,-1l-2.55,-9.52l0.15,-2.76l0,-0.35c0,0 5.72,-6 7,-6.45c0,0 1,0.12 2.9,-4.53c1.9,-4.65 3.64,-5.65 3.64,-5.65l1,-3.36l10.73,-17.09c0,0 9,-12.89 11.45,-7.17c2.45,5.72 -5.61,8.61 -5.61,8.61Z" style="fill:#ffd2c6;fill-rule:nonzero;"/><path d="M646.06,365.56c-0.029,0.311 -0.128,0.612 -0.29,0.88c-1,1.46 -6.63,31.17 -6.63,31.17c0.45,2 -0.82,6 -1.64,7.82c-0.82,1.82 -2.64,11.26 -2.64,11.26c0,0 -0.45,20.36 -1.62,23.54c-1.17,3.18 0.37,10 0.37,10c-0.11,3.13 1.77,6.45 2.89,8.13l0.22,0.32c0.36,0.52 0.6,0.82 0.6,0.82c0.308,0.607 0.741,1.142 1.27,1.57l0.26,0.2c1.545,1.032 3.273,1.762 5.09,2.15l0.18,0c0.72,0.16 1.2,0.23 1.2,0.23l0.45,2.46l-4.81,1l-9.18,0.63c0,0 -10.82,0.83 -8.36,-4c0.17,-0.322 0.317,-0.657 0.44,-1c0.095,-0.236 0.179,-0.476 0.25,-0.72c1.48,-4.63 0.48,-10.26 0.48,-10.26l-2.09,-16.44c-3.45,-15.27 2.71,-32.26 2.71,-32.26c0,0 -0.53,-1.36 0.65,-4.81c1.18,-3.45 0,-11 0,-11c0,0 -0.63,-9.72 -1.45,-14.53c-0.323,-2.026 -0.434,-4.081 -0.33,-6.13c0.04,-1.199 0.15,-2.394 0.33,-3.58l20.71,-2.75c0,0 1.19,3.37 0.94,5.3Z" style="fill:#ffd2c6;fill-rule:nonzero;"/><path d="M645.77,466.13l-4.81,1l-9.18,0.63c0,0 -10.82,0.83 -8.36,-4c0.17,-0.322 0.317,-0.657 0.44,-1c0.095,-0.236 0.179,-0.476 0.25,-0.72c1.875,0.062 3.727,0.434 5.48,1.1c3.08,1.19 5.4,-1.91 5.4,-1.91l1.5,-2.86l0.22,-0.41c0.36,0.52 0.6,0.82 0.6,0.82c0.363,0.703 0.887,1.309 1.53,1.77l-0.26,0.53l-1.45,3.06c0,0 1.86,0.19 4.4,0.6c1.014,0.262 2.072,-0.315 2.4,-1.31l0.18,0c0.72,0.16 1.2,0.23 1.2,0.23l0.46,2.47Z" style="fill-opacity:0.1;fill-rule:nonzero;"/><path d="M650.22,468.39c-0.36,1.64 -10.49,2.14 -10.49,2.14c0,0 -5.64,-0.54 -7.22,0.77c-1.58,1.31 -6.23,1 -6.41,1c-0.18,0 -2.63,-0.09 -3.59,-4.49c-0.96,-4.4 1.25,-5 1.35,-5.07c1.961,0.028 3.901,0.404 5.73,1.11c3.08,1.19 5.4,-1.91 5.4,-1.91l1.72,-3.27c0.36,0.52 0.6,0.82 0.6,0.82c0.363,0.703 0.887,1.309 1.53,1.77l-1.71,3.59c0,0 1.86,0.19 4.4,0.59c0.154,0.035 0.312,0.053 0.471,0.053c1.136,0 2.078,-0.917 2.109,-2.053c0.005,-0.09 0.005,-0.18 0,-0.27c-0.005,-0.09 1.58,0.46 3.54,1c1.814,0.522 2.938,2.369 2.57,4.22Z" style="fill:#626696;fill-rule:nonzero;"/><path d="M669.31,387.22c-0.24,1.45 -0.49,5.21 -0.49,5.21c0.85,3.15 -1.33,10.63 -1.33,10.63l-1.09,4.27c0.48,5.45 -3,18.78 -3,18.78c0,0 -2.33,12.36 -3.54,17.69c-0.724,2.963 -0.504,6.079 0.63,8.91l0.09,0.22c0,0.1 0.05,0.2 0.07,0.3c0.036,0.147 0.083,0.29 0.14,0.43c0.271,0.734 0.674,1.412 1.19,2c0.199,0.24 0.416,0.464 0.65,0.67c1.14,1.01 2.446,1.815 3.86,2.38l0.61,0.24c0.632,0.234 1.276,0.435 1.93,0.6l0.22,0l-0.49,2.86l-6.42,-1.65l-8.6,-2.79l-4.17,-2.34c0,0 0,-0.23 0.13,-0.67c0.005,-0.026 0.005,-0.054 0,-0.08c0,-0.19 0.08,-0.41 0.13,-0.67c0.66,-3.75 2.3,-14.24 1.48,-22c-1,-9.57 3,-22.78 3.93,-25.92c0.578,-1.801 0.825,-3.691 0.73,-5.58c-1.58,-2.3 -1.94,-11.51 -1.94,-11.51c0,0 -2.91,-5.94 -5.31,-12.24c-0.8,-2.056 -1.38,-4.192 -1.73,-6.37c-0.284,-1.533 -0.402,-3.092 -0.35,-4.65c0.052,-1.558 19.51,-17.81 21.65,-0.57c0.07,0.59 0.14,1.14 0.21,1.69c1.9,15.85 1.04,18.75 0.81,20.16Z" style="fill:#ffd2c6;fill-rule:nonzero;"/><path d="M669.31,459.63l-0.49,2.86l-6.42,-1.65l-8.6,-2.79l-4.23,-2.42c0,0 0,-0.23 0.13,-0.67c0.005,-0.026 0.005,-0.054 0,-0.08c0,-0.19 0.08,-0.41 0.13,-0.67l0.6,0c1.222,-0.119 2.454,0.049 3.6,0.49c1.4,0.52 3.24,1.12 3.61,0.87c0.649,-0.278 1.355,-0.401 2.06,-0.36l0.89,-2l0.14,-0.3c0.269,0.735 0.672,1.413 1.19,2c0.215,0.251 0.445,0.488 0.69,0.71l0,0.69l-0.05,1c0.961,0.612 2,1.089 3.09,1.42c0.282,0.07 0.578,0.07 0.86,0l0.61,0.24c0.632,0.234 1.276,0.435 1.93,0.6l0.26,0.06Z" style="fill-opacity:0.1;fill-rule:nonzero;"/><path d="M666.09,465.76c-1.79,-0.51 -6.11,-1.34 -6.81,-0.7c-0.7,0.64 -6.69,0 -6.69,0c-1.275,-0.02 -2.449,-0.708 -3.09,-1.81c-1.25,-1.94 -0.24,-8.21 -0.24,-8.21l0.44,0l0.74,-0.08c1.221,-0.118 2.453,0.046 3.6,0.48c1.4,0.53 3.24,1.13 3.61,0.88c0.648,-0.285 1.354,-0.411 2.06,-0.37l1,-2.25c0.271,0.734 0.674,1.412 1.19,2c0.212,0.25 0.443,0.484 0.69,0.7l-0.09,1.67c0.962,0.612 2.001,1.093 3.09,1.43c0.541,0.205 1.157,0.01 1.48,-0.47c0.046,-0.079 0.083,-0.163 0.11,-0.25c0.81,0.382 1.662,0.664 2.54,0.84c2.315,-0.242 4.471,1.294 5,3.56c0.95,2.79 -6.84,3.09 -8.63,2.58Z" style="fill:#626696;fill-rule:nonzero;"/><path d="M646.06,365.56l-1.11,0.34c-0.872,0.265 -1.765,0.452 -2.67,0.56c-5.74,0.81 -15.19,0.32 -18.19,0.13c0.04,-1.199 0.15,-2.394 0.33,-3.58l20.71,-2.75c0,0 1.18,3.37 0.93,5.3Z" style="fill-opacity:0.1;fill-rule:nonzero;"/><path d="M664.13,360.53c0,0 -7.6,1.18 -13.79,2.53c-2.06,0.45 -4,0.93 -5.39,1.38c-0.873,0.264 -1.766,0.454 -2.67,0.57c-6.89,1 -19.13,0.07 -19.13,0.07c-3.36,-10.9 4.08,-24.63 4.08,-24.63c-0.17,-1.09 1.55,-4.44 1.55,-4.44l0,-0.11l1.06,-3.89l28.25,0l0.35,1.67l0.72,3.4l4.44,21.07l0.53,2.38Z" style="fill:#626696;fill-rule:nonzero;"/><path d="M668.51,367.14l-0.17,0.07l-3.31,1.47c-3.58,1.65 -14.29,2 -18,2c-0.284,-1.533 -0.402,-3.092 -0.35,-4.65c0.052,-1.558 19.51,-17.81 21.65,-0.57c0.04,0.58 0.11,1.17 0.18,1.68Z" style="fill-opacity:0.1;fill-rule:nonzero;"/><path d="M669.03,365.45l-0.69,0.31l-3.31,1.47c-3.64,1.68 -14.7,2 -18.24,2l-0.93,0c-1.63,-0.05 -3.27,-1.58 -3.27,-2c0,-0.22 -0.17,-1.3 -0.31,-2.22c-0.13,-0.74 -0.23,-1.38 -0.23,-1.38c-3.797,-1.634 -7.472,-3.536 -11,-5.69c-2.77,-1.89 -2.07,-15.32 -1.54,-22.07c0.19,-2.33 0.36,-3.86 0.36,-3.86l28.6,1.67l4,0.23l2.29,0.51l0.61,0.13c0,0 1.65,12 2.46,13c0.81,1 0.28,4.36 0.18,6.28c-0.001,0.824 -0.092,1.645 -0.27,2.45c-0.178,0.805 1.18,3.36 0.91,5.24c-0.124,1.322 0.005,2.656 0.38,3.93Z" style="fill:#626696;fill-rule:nonzero;"/><circle cx="638.41" cy="254.14" r="11.72" style="fill:#ffd2c6;"/><path d="M632.69,259.02c0,0 0.81,11.1 -1.46,13.65c-2.594,2.597 -5.325,5.054 -8.18,7.36l1.82,7.54l10.27,1.18l12,-12.81l-2.73,-3.31c0,0 -2.09,-7.09 -0.37,-10.63c1.72,-3.54 -11.35,-2.98 -11.35,-2.98Z" style="fill:#ffd2c6;fill-rule:nonzero;"/><path d="M657.49,283.41l-0.63,1l-3.63,-1l-2.55,-9.52l0.15,-2.76l0.75,-1.08c0,0 4,0.09 3.83,3.73c-0.17,3.18 1.65,8.42 2.08,9.63Z" style="fill-opacity:0.1;fill-rule:nonzero;"/><path d="M665.39,336.01c0,0 -2.89,0.64 -6.2,1.07c-3.31,0.43 -7.13,0.66 -8.7,-0.26c-2.63,-1.56 -16.88,-1.11 -21,-0.95l-0.7,0l1.06,-3.89l28.25,0l0.35,1.67l4,0.23l2.29,0.51c0.42,0.98 0.65,1.62 0.65,1.62Z" style="fill-opacity:0.1;fill-rule:nonzero;"/><path d="M650.86,270.76c0,0 4,0.09 3.82,3.73c-0.18,3.64 2.18,9.9 2.18,9.9l-0.91,2.09c0,0 -1.27,5.09 -0.27,6.36c1,1.27 4.63,1.27 2.54,11.72c0,0 -0.45,7.82 0.64,10.36c1.09,2.54 1.09,8.63 2.72,11.18c1.488,2.714 2.765,5.539 3.82,8.45c1.055,2.911 -11.81,2.63 -14.9,0.82c-3.09,-1.81 -22.08,-0.91 -22.08,-0.91c0,0 0.09,-3.18 0,-3.55c-0.178,-0.799 -0.015,-1.637 0.45,-2.31c0.64,-0.87 1.64,-2.32 1.09,-3.59c-0.55,-1.27 1.36,-3.15 0.36,-5.12c-1,-1.97 -2.21,-2.36 -2,-3.44c0.109,-1.251 -0.296,-2.493 -1.12,-3.44c-0.72,-0.91 -5.63,-10.51 -5.63,-10.51l-0.82,-4.48c0,0 -6.32,-4.63 -6.2,-6.81c0.12,-2.18 2.39,-5.21 2.39,-5.21l6.08,-6c0,0 3.37,3.63 6.64,2.36c3.27,-1.27 10.3,-7.36 10.3,-7.36c0,0 2.51,-1.36 2.69,-2.36c0.18,-1 1.73,-0.09 1.73,-0.09c0,0 2.27,-1.25 2.72,-0.81c0.771,0.402 1.601,0.675 2.46,0.81l1.3,-1.79Z" style="fill:#ffcde5;fill-rule:nonzero;"/><path d="M616.51,289.69l-1.93,1.52c-1.467,3.103 -2.293,6.47 -2.43,9.9c-0.511,5.157 -1.33,10.28 -2.45,15.34l-3.82,6.83c0,0 -6.27,13.17 -7.09,16.67c-0.82,3.5 -4.54,9.41 -4.54,9.41c0,0 -12.63,11.35 -3.82,13.4c8.81,2.05 9.09,-9 9.09,-9c0,0 2,-2.27 2.39,-3.82c0.39,-1.55 11.51,-21.31 11.51,-21.31c0,0 3.91,-5.32 3.09,-8.14c0,0 5.09,-12 5.09,-15c-0.095,-2.51 -0.369,-5.009 -0.82,-7.48l0.82,-6.27l-5.09,-2.05Z" style="fill:#ffd2c6;fill-rule:nonzero;"/><path d="M642.68,314.74c0,0 -8.9,4.66 -10.63,4.91c-1.73,0.25 7.54,-1 7.54,-1l3.09,-3.91Z" style="fill-opacity:0.1;fill-rule:nonzero;"/><path d="M649.94,318.37c0,0 -11.81,4 -17,3.28c0,-0.02 12.92,2.45 17,-3.28Z" style="fill-opacity:0.1;fill-rule:nonzero;"/><path d="M650.68,319.68c0,0 -10.64,6.69 -16.9,5.6c0,0 14.63,2.91 16.9,1.36l-6.54,-1.81c0,0 7.26,-3.85 6.54,-5.15Z" style="fill-opacity:0.1;fill-rule:nonzero;"/><path d="M638.43,233.51c-3.102,-0.763 -6.386,-0.146 -9,1.69c-1.82,1.43 -3,3.62 -5.08,4.69c-1.08,0.461 -2.189,0.852 -3.32,1.17c-4.085,1.671 -6.515,5.957 -5.85,10.32c0.32,1.8 1.16,3.46 1.58,5.24c0.74,3.17 0.08,6.49 -0.72,9.65c-2.238,8.762 -5.635,17.186 -10.1,25.05c-0.352,0.487 -0.528,1.08 -0.5,1.68c0.113,0.403 0.326,0.772 0.62,1.07c4.2,4.85 11,6.52 17.45,6.74c2.368,0.234 4.755,-0.163 6.92,-1.15c1.337,-0.769 2.488,-1.825 3.37,-3.09c2.231,-3.053 3.341,-6.784 3.14,-10.56c-0.17,-3.05 -1.19,-6.13 -0.42,-9.08c0.076,-0.412 0.263,-0.796 0.54,-1.11c0.69,-0.71 1.84,-0.52 2.82,-0.64c2.67,-0.31 4.39,-3.12 4.71,-5.79c0.32,-2.67 -0.35,-5.35 -0.37,-8c-0.01,-3.548 1.099,-7.009 3.17,-9.89c0.89,-1.22 2,-2.42 2.32,-3.95c0.38,-1.92 -0.73,-3.33 -1.69,-4.84c-1.49,-2.36 -2.22,-5.11 -4.49,-6.91c-1.498,-1.151 -3.245,-1.935 -5.1,-2.29Z" style="fill-opacity:0.1;fill-rule:nonzero;"/><path d="M637.7,232.78c-3.083,-0.753 -6.345,-0.136 -8.94,1.69c-1.82,1.44 -3,3.63 -5.09,4.7c-1.082,0.453 -2.191,0.841 -3.32,1.16c-4.077,1.669 -6.505,5.943 -5.85,10.3c0.32,1.8 1.16,3.46 1.58,5.24c0.74,3.17 0.09,6.49 -0.72,9.65c-2.237,8.745 -5.63,17.152 -10.09,25c-0.359,0.484 -0.536,1.079 -0.5,1.68c0.103,0.405 0.314,0.775 0.61,1.07c4.2,4.86 11,6.52 17.45,6.74c2.367,0.234 4.754,-0.159 6.92,-1.14c1.335,-0.776 2.485,-1.834 3.37,-3.1c2.227,-3.054 3.333,-6.786 3.13,-10.56c-0.18,-3 -1.2,-6.13 -0.43,-9.08c0.085,-0.409 0.27,-0.791 0.54,-1.11c0.7,-0.71 1.84,-0.52 2.83,-0.63c2.66,-0.31 4.38,-3.13 4.7,-5.79c0.32,-2.66 -0.35,-5.35 -0.36,-8c-0.015,-3.545 1.095,-7.005 3.17,-9.88c0.88,-1.23 2,-2.43 2.32,-4c0.37,-1.92 -0.74,-3.32 -1.7,-4.84c-1.49,-2.35 -2.22,-5.11 -4.49,-6.91c-1.516,-1.119 -3.273,-1.869 -5.13,-2.19Z" style="fill:#985c7e;fill-rule:nonzero;"/><path d="M633.78,346.39c0,0 2.33,10.91 6.21,13.87l-6.21,-13.87Z" style="fill-opacity:0.1;fill-rule:nonzero;"/><g><g opacity="0.1"><path d="M615.19,253.09c-0.12,-0.42 -0.26,-0.85 -0.41,-1.27c0.16,0.43 0.26,0.81 0.41,1.27Z" style="fill-rule:nonzero;"/><path d="M648.34,243.63c0.042,0.332 0.042,0.668 0,1c-0.3,1.53 -1.43,2.73 -2.32,3.95c-2.069,2.881 -3.178,6.343 -3.17,9.89c0,2.69 0.68,5.37 0.36,8c-0.32,2.63 -2,5.48 -4.7,5.78c-1,0.12 -2.13,-0.07 -2.82,0.64c-0.272,0.319 -0.461,0.7 -0.55,1.11c-0.77,2.95 0.26,6 0.43,9.08c0.186,3.777 -0.938,7.505 -3.18,10.55c-0.879,1.268 -2.031,2.324 -3.37,3.09c-2.161,0.988 -4.546,1.385 -6.91,1.15c-6.31,-0.21 -13,-1.84 -17.24,-6.51c-0.112,0.279 -0.147,0.583 -0.1,0.88c0.103,0.405 0.314,0.775 0.61,1.07c4.2,4.86 11,6.52 17.45,6.74c2.367,0.234 4.754,-0.159 6.92,-1.14c1.335,-0.776 2.485,-1.834 3.37,-3.1c2.227,-3.054 3.333,-6.786 3.13,-10.56c-0.18,-3 -1.2,-6.13 -0.43,-9.08c0.085,-0.409 0.27,-0.791 0.54,-1.11c0.7,-0.71 1.84,-0.52 2.83,-0.63c2.66,-0.31 4.38,-3.13 4.7,-5.79c0.32,-2.66 -0.35,-5.35 -0.36,-8c-0.015,-3.545 1.095,-7.005 3.17,-9.88c0.88,-1.23 2,-2.43 2.32,-4c0.166,-1.091 -0.076,-2.206 -0.68,-3.13Z" style="fill-rule:nonzero;"/></g></g><ellipse cx="129.18" cy="500.1" rx="21.16" ry="2.14" style="fill:#88ae3d;fill-opacity:0.1;"/><path d="M136.58,464.72c0,0 -27.6,14.26 -13.34,31c0.821,2.135 2.936,3.508 5.22,3.39c2.284,-0.118 -0.78,-1.41 2.19,-2.54c1.059,-0.407 2.066,-0.937 3,-1.58c1.255,-0.867 2.193,-2.121 2.67,-3.57c0.477,-1.449 5.65,-7.55 1.27,-21.52c0,0 0.57,-4 0.07,-4.59l-3.35,4.59c0,0 3.47,2.33 3.87,5.75c0,0 -3.61,-5.74 -4.4,-5.08c-0.16,0.13 -1.66,2.51 -1.66,2.51c0,0 6,4.08 6.45,9.37c0,0 -3.38,-7.41 -7,-8.47l-2.06,3.73c0,0 6.56,4 7.3,10c0,0 -3.81,-7.62 -7.7,-9.15l-1.53,3.94c0,0 6.32,4 6.9,9c0,0 -5.29,-8.36 -7.19,-8.09c0,0 -1.19,3.7 -1,4.84c0,0 4.48,3 4.56,5.93c0,0 -4.13,-5.22 -4.77,-4.87c0,0 -0.26,5.24 1,8c-1.299,-2.46 -1.931,-5.219 -1.83,-8c-1.279,1.13 -2.198,2.612 -2.64,4.26c-0.442,1.648 -1.19,-2.89 2.72,-5.53c0,0 0.37,-4.08 0.82,-4.58c0,0 -4.23,2.06 -6,4.6c0,0 0.66,-3.78 6.4,-5.66l1.46,-4c0,0 -5.74,2.43 -7.52,4.57c0,0 1.28,-3.75 8,-5.55l2,-3.68c0,0 -5.1,1.72 -7.59,3.68c0,0 1.93,-3.23 8.2,-4.71l1.62,-2.31c0,0 -3.71,1.33 -4.74,1.8c-1.03,0.47 -1.24,0.24 -1.24,0.24c1.89,-1.599 4.19,-2.639 6.64,-3c2.45,-0.361 3.45,-4.47 3.2,-4.72Z" style="fill:#88ae3d;fill-rule:nonzero;"/><path d="M163.77,490.1c2.89,1.71 7.41,2.82 13.1,-0.85l-0.06,8.11c0.41,5.57 7.28,25.83 7.28,25.83l4.85,16.68c3.479,11.778 5.276,23.989 5.34,36.27c-0.124,3.866 0.4,7.727 1.55,11.42c2.58,7 -1,16 -2.58,19.33c-2.88,1 -5.85,1.75 -8,2.25c-0.245,0.057 -0.485,0.13 -0.72,0.22l0,-0.05c0,0 -7.28,2.89 -10.52,2.49c-2.41,-0.3 -3.92,2.71 -2,4.92c-1.569,0.483 -3.209,0.7 -4.85,0.64c-3.24,-0.4 -4.85,5.17 1.21,6.76c6.06,1.59 40.46,0 40.46,0c1.986,-0.992 3.056,-3.22 2.59,-5.39c2.64,-0.1 4.29,-0.18 4.29,-0.18c0,0 6.07,-2.78 0,-10.33l-0.32,0.25l-1.3,-3.82l0,-5.17c0,0 7.69,-37 5.26,-41.32c-2.43,-4.32 -3.64,-26.62 -3.64,-26.62l0.81,-24.24c2.19,-4.53 3.32,-11.62 3.89,-17.17c0.824,-2.649 1.344,-5.383 1.55,-8.15c0.09,-1.3 0.17,-2.67 0.22,-4.09c0.032,-3.111 -0.465,-6.205 -1.47,-9.15c2.736,-4.079 5.799,-7.928 9.16,-11.51c2.834,-2.634 4.196,-6.501 3.64,-10.33l-2,-13.51l-4.86,-23c0.61,-6.4 -0.72,-10.08 -2.2,-12.16c0.35,-2.06 0.68,-4.13 0.93,-6.2c1.075,-9.015 0.594,-18.148 -1.42,-27c-0.7,-3.09 -1.66,-6.26 -3.82,-8.6c-2.46,-2.65 -6.44,-4.27 -7.35,-7.74c-0.14,-0.879 -0.327,-1.751 -0.56,-2.61c-0.89,-2.28 -3.7,-3.1 -6.16,-3.4c-4.38,-0.53 -10.71,-0.94 -14.92,0.78c-2.93,1.21 -7,4.51 -8.59,8.06c-0.958,1.478 -1.316,3.267 -1,5c0.153,0.593 0.389,1.162 0.7,1.69c-0.65,1.702 -0.988,3.508 -1,5.33c0.033,6.358 3.972,12.08 9.9,14.38c0.09,0.3 0.18,0.6 0.26,0.9c0.183,0.71 0.313,1.431 0.39,2.16c-0.07,1.41 -0.16,2.82 -0.23,4.22c-0.038,0.193 -0.088,0.383 -0.15,0.57c-3.483,1.542 -6.878,3.275 -10.17,5.19c2.43,3.57 -0.4,18.67 -0.4,18.67c-6.07,3.58 -12.14,12.72 -5.67,22.25c6.47,9.53 2.83,19.75 2.83,19.75l-1,15.54l-0.2,3.1l0.08,0l-0.08,1.18l0.17,0l0,1.27c-2.85,1 -7,3.14 -9.47,7c-1.174,1.915 -2.6,3.664 -4.24,5.2c-0.733,0.592 -1.16,1.485 -1.16,2.428c0,1.15 0.636,2.21 1.65,2.752Zm48.85,-41.28c-0.243,-2.686 0.255,-5.387 1.44,-7.81c0.95,0 1.91,0 2.86,0c0.1,0.67 0.21,1.31 0.35,1.89c0.82,3.54 -2.46,5.21 -4.65,5.92Z" style="fill:url(#_Linear1);fill-rule:nonzero;"/><path d="M213.42,602.83l1.56,4.67l-5.04,5.06l-16.74,3.89l-12.07,-1.17l0.78,-4.28c0.467,-1.873 1.95,-3.333 3.83,-3.77c5,-1.17 14.42,-3.82 16.41,-7.52l11.27,3.12Z" style="fill:#db8b8b;fill-rule:nonzero;"/><path d="M213.42,602.83l1.56,4.67l-5.04,5.06l-16.74,3.89l-12.07,-1.17l0.78,-4.28c0.467,-1.873 1.95,-3.333 3.83,-3.77c5,-1.17 14.42,-3.82 16.41,-7.52l11.27,3.12Z" style="fill-opacity:0.1;fill-rule:nonzero;"/><path d="M185,614.12l2.34,-3.12l-2.34,-3.6c0,0 -7,2.82 -10.12,2.43c-3.12,-0.39 -4.67,5.07 1.17,6.62c5.84,1.55 38.93,0 38.93,0c0,0 5.84,-2.72 0,-10.12l-5.04,3.89c0,0 -8.57,4.68 -12.85,3.9l-12.09,0Z" style="fill:#2e3037;fill-rule:nonzero;"/><path d="M174.49,620.74l12.07,1.16l16.74,-3.89l5.06,-5.06l-0.41,-1.24l-0.58,-1.74l-0.56,-1.69l-11.29,-3.12c-0.573,0.935 -1.357,1.723 -2.29,2.3c-3.67,2.5 -10.26,4.31 -14.12,5.22l-0.49,0.14c-0.75,0.245 -1.434,0.659 -2,1.21c-0.678,0.662 -1.16,1.5 -1.39,2.42l-0.74,4.29Z" style="fill:#db8b8b;fill-rule:nonzero;"/><path d="M174.49,620.74l12.07,1.16l16.74,-3.89l5.06,-5.06l-0.41,-1.24l-4.65,3.57c0,0 -8.56,4.68 -12.85,3.9l-12.06,0l2.33,-3.12l-2.1,-3.24c-0.75,0.245 -1.434,0.659 -2,1.21c-0.678,0.662 -1.16,1.5 -1.39,2.42l-0.74,4.29Z" style="fill-opacity:0.1;fill-rule:nonzero;"/><path d="M178.39,619.57l2.33,-3.12l-2.33,-3.6c0,0 -7,2.82 -10.13,2.43c-3.13,-0.39 -4.67,5.07 1.17,6.62c5.84,1.55 38.93,0 38.93,0c0,0 5.84,-2.72 0,-10.12l-5.06,3.85c0,0 -8.56,4.68 -12.85,3.9l-12.06,0.04Z" style="fill:#2e3037;fill-rule:nonzero;"/><path d="M188.12,393.77c0,0 18.69,1.94 16,-5.84c-0.758,-2.21 -0.958,-4.574 -0.58,-6.88c0.488,-2.857 1.62,-5.565 3.31,-7.92l-17.52,2.73c1.046,1.755 1.844,3.646 2.37,5.62c2.05,8.26 -3.58,12.29 -3.58,12.29Z" style="fill:#db8b8b;fill-rule:nonzero;"/><path d="M220.04,482.53c0,0 -0.39,16.74 -4.28,24.92l-0.82,23.74c0,0 1.17,21.8 3.5,26.09c2.33,4.29 -5.06,40.49 -5.06,40.49l0,6.22c0,0 -12.45,4.68 -16,-0.77l3.56,-46.33l-1.53,-64.26l20.63,-10.1Z" style="fill:#474463;fill-rule:nonzero;"/><path d="M220.04,482.53c0,0 -0.39,16.74 -4.28,24.92l-0.82,23.74c0,0 1.17,21.8 3.5,26.09c2.33,4.29 -5.06,40.49 -5.06,40.49l0,6.22c0,0 -12.45,4.68 -16,-0.77l3.56,-46.33l-1.53,-64.26l20.63,-10.1Z" style="fill-opacity:0.1;fill-rule:nonzero;"/><path d="M227.83,428.8l2.33,6.23l1.95,13.24c0.536,3.737 -0.77,7.512 -3.5,10.12c-4.67,4.67 -10.9,14.41 -10.9,14.41l-7.4,-22.17c0,0 7.4,-1.17 6.23,-6.23c-1.17,-5.06 -0.78,-14.41 -0.78,-14.41l12.07,-1.19Z" style="fill:#fc6681;fill-rule:nonzero;"/><path d="M227.83,428.8l2.33,6.23l1.95,13.24c0.536,3.737 -0.77,7.512 -3.5,10.12c-4.67,4.67 -10.9,14.41 -10.9,14.41l-7.4,-22.17c0,0 7.4,-1.17 6.23,-6.23c-1.17,-5.06 -0.78,-14.41 -0.78,-14.41l12.07,-1.19Z" style="fill-opacity:0.05;fill-rule:nonzero;"/><path d="M193.23,607.46c5,7.86 12.76,3.4 14.14,2.51l-0.56,-1.69l-11.29,-3.12c-0.573,0.935 -1.357,1.723 -2.29,2.3Z" style="fill-opacity:0.1;fill-rule:nonzero;"/><path d="M177.61,497.71c0.39,5.45 7,25.31 7,25.31l4.67,16.34c3.351,11.551 5.078,23.513 5.13,35.54c-0.099,3.788 0.418,7.567 1.53,11.19c3.12,8.56 -3.11,20.24 -3.11,20.24c5.45,9.73 14.79,3.12 14.79,3.12l0,-6.23c0,0 7.4,-33.87 5.45,-40.49c-1.95,-6.62 -2.72,-24.53 -2.72,-24.53l0,-32.31c6.218,-6.226 9.996,-14.484 10.64,-23.26c0.1,-1.27 0.17,-2.61 0.22,-4c0.32,-8.79 -5.69,-19.08 -8,-22.76c-0.56,-0.88 -0.91,-1.38 -0.91,-1.38l-34.42,13.64l-0.08,0l0,4.28l-0.19,25.3Z" style="fill:#474463;fill-rule:nonzero;"/><path d="M189.29,375.86c1.046,1.755 1.844,3.646 2.37,5.62c3.84,1.469 8.117,1.314 11.84,-0.43c0.488,-2.857 1.62,-5.565 3.31,-7.92l-17.52,2.73Z" style="fill-opacity:0.1;fill-rule:nonzero;"/><circle cx="197.07" cy="366.52" r="15.18" style="fill:#db8b8b;"/><path d="M177.61,472.41l0.16,0c16.33,3.35 36.82,-13.66 36.82,-13.66c-0.548,-0.929 -1.022,-1.898 -1.42,-2.9c-0.56,-0.88 -0.91,-1.38 -0.91,-1.38l-34.38,13.66l-0.09,1.36l-0.18,2.92Z" style="fill-opacity:0.1;fill-rule:nonzero;"/><path d="M181.94,393.38c0,0 21.8,-13.24 28.81,-7.79l9.73,12.46c0,0 6.23,1.94 5.06,14.4l4.67,22.58l-14,3.51c0,0 -8.27,7.78 -1.62,19.09c0,0 -20.63,17.13 -37,13.63l1.16,-18.3c0,0 3.51,-10.12 -2.72,-19.46c-6.23,-9.34 -0.39,-18.3 5.45,-21.81c0.02,-0.06 2.75,-14.81 0.46,-18.31Z" style="fill:#fc6681;fill-rule:nonzero;"/><path d="M180.72,472.8c0,0 -8.17,1.55 -12.07,7.78c-1.119,1.873 -2.489,3.586 -4.07,5.09c-0.644,0.585 -1.011,1.416 -1.011,2.286c0,1.08 0.567,2.085 1.491,2.644c3.09,1.85 8.13,3 14.49,-2.23c10.9,-8.96 1.17,-15.57 1.17,-15.57Z" style="fill:#db8b8b;fill-rule:nonzero;"/><path d="M192.79,400.77c0,0 7.79,-0.78 9.73,19.47c1.94,20.25 5.06,24.92 5.06,24.92c0,0 1.95,10.51 -2.72,16.74c-4.67,6.23 -13.63,19.46 -13.63,19.46c0,0 -9.73,2.73 -11.68,-7l12.07,-22.58c0,0 1.95,-7.78 -2.72,-13.23c-4.67,-5.45 -8.18,-41.67 3.89,-37.78Z" style="fill-opacity:0.1;fill-rule:nonzero;"/><path d="M192.01,399.63c0,0 7.79,-0.78 9.73,19.46c1.94,20.24 5.07,24.92 5.07,24.92c0,0 1.94,10.51 -2.73,16.74c-4.67,6.23 -13.63,19.46 -13.63,19.46c0,0 -9.73,2.73 -11.68,-7l12.07,-22.58c0,0 1.95,-7.79 -2.72,-13.24c-4.67,-5.45 -8.18,-41.68 3.89,-37.76Z" style="fill:#fc6681;fill-rule:nonzero;"/><path d="M185.59,414.2c0,0 -0.78,12.07 2.72,18.69c3.5,6.62 3.51,15.18 0,19.86" style="fill-opacity:0.1;fill-rule:nonzero;"/><path d="M183.64,399.41c0,0 3.12,-3.11 12.07,-3.5c8.95,-0.39 12.85,-3.12 12.85,-3.12" style="fill-opacity:0.1;fill-rule:nonzero;"/><path d="M205.3,346.89c2.36,0.29 5.07,1.1 5.92,3.33c0.225,0.843 0.405,1.698 0.54,2.56c0.88,3.4 4.71,5 7.07,7.59c2.09,2.29 3,5.4 3.68,8.42c1.938,8.677 2.401,17.619 1.37,26.45c-0.76,6.46 -2.31,12.82 -2.75,19.3c-0.44,6.48 0.36,13.31 3.91,18.76c1.52,2.34 3.53,4.4 4.61,7c-2.23,1.81 -5.31,2.07 -8.18,2.17c-3.333,0.107 -6.667,0.107 -10,0c-1.765,0.074 -3.52,-0.29 -5.11,-1.06c-1.124,-0.716 -2.047,-1.707 -2.68,-2.88c-1.91,-3.25 -2.4,-7.15 -2.32,-10.93c0.08,-3.78 0.68,-7.52 0.75,-11.29c0,-2.06 -0.12,-4.24 -1.3,-5.92c-0.97,-1.123 -2.068,-2.13 -3.27,-3c-4.16,-3.69 -5.59,-9.62 -5.73,-15.18c-0.14,-5.56 0.77,-11.14 0.3,-16.69c-0.18,-2.17 -1,-4.78 -3.13,-5.2c-0.672,-0.037 -1.341,-0.124 -2,-0.26c-1.72,-0.66 -1.55,-3.08 -2,-4.85c-0.55,-2 -2.24,-3.52 -2.72,-5.53c-1.12,-4.71 4.87,-10.33 8.8,-12c3.93,-1.67 10.02,-1.31 14.24,-0.79Z" style="fill-opacity:0.1;fill-rule:nonzero;"/><path d="M205.69,346.11c2.36,0.3 5.06,1.11 5.92,3.33c0.226,0.846 0.406,1.704 0.54,2.57c0.88,3.4 4.71,5 7.07,7.58c2.09,2.29 3,5.4 3.68,8.42c1.938,8.677 2.401,17.619 1.37,26.45c-0.76,6.46 -2.31,12.82 -2.75,19.3c-0.44,6.48 0.36,13.31 3.91,18.76c1.52,2.34 3.53,4.4 4.61,7c-2.23,1.81 -5.31,2.07 -8.18,2.17c-3.333,0.107 -6.683,0.107 -10.05,0c-1.765,0.074 -3.52,-0.29 -5.11,-1.06c-1.122,-0.714 -2.044,-1.702 -2.68,-2.87c-1.92,-3.26 -2.4,-7.16 -2.32,-10.94c0.08,-3.78 0.68,-7.52 0.75,-11.29c0,-2.05 -0.12,-4.24 -1.3,-5.92c-0.973,-1.121 -2.07,-2.127 -3.27,-3c-4.16,-3.69 -5.6,-9.61 -5.74,-15.18c-0.14,-5.57 0.78,-11.14 0.31,-16.69c-0.18,-2.17 -1,-4.78 -3.13,-5.2c-0.672,-0.037 -1.341,-0.124 -2,-0.26c-1.72,-0.66 -1.55,-3.08 -2,-4.85c-0.55,-2 -2.24,-3.52 -2.72,-5.53c-1.12,-4.7 4.87,-10.33 8.8,-12c3.93,-1.67 10.07,-1.27 14.29,-0.79Z" style="fill:#472727;fill-rule:nonzero;"/><ellipse cx="961.14" cy="692.67" rx="24" ry="3.3" style="fill:#88ae3d;fill-opacity:0.1;"/><ellipse cx="869.2" cy="702" rx="24" ry="3.3" style="fill:#88ae3d;fill-opacity:0.1;"/><ellipse cx="760.91" cy="689.38" rx="24" ry="3.3" style="fill:#88ae3d;fill-opacity:0.1;"/><ellipse cx="906" cy="728.54" rx="17.06" ry="2.34" style="fill:#88ae3d;fill-opacity:0.1;"/><ellipse cx="810.58" cy="726.19" rx="17.06" ry="2.34" style="fill:#88ae3d;fill-opacity:0.1;"/><path d="M868.69,701.25c0,0 33.66,-110.34 -5.27,-154.54c-29.12,-33.06 -62.17,-29.11 -77,-25c-7.75,2.067 -14.212,7.438 -17.66,14.68c-5.17,11.16 -4.24,29.29 32.3,50.44c61.17,35.41 65,84 65,84l2.63,30.42Z" style="fill:#88ae3d;fill-rule:nonzero;"/><path d="M791.71,537.34c0,0 99.23,31 77,163.91" style="fill:none;stroke:#565987;stroke-width:1px;"/><path d="M849.67,548.47c0,0 -13.67,9.2 -9.32,23" style="fill:none;stroke:#565987;stroke-width:1px;"/><path d="M801.66,556.63c0,0 8.36,-8.5 18.52,-3.81" style="fill:none;stroke:#565987;stroke-width:1px;"/><path d="M840.94,599.39c0,0 14.66,-7.44 18.45,1.88" style="fill:none;stroke:#565987;stroke-width:1px;"/><path d="M877.18,614.91c0,0 -11,-0.88 -11.21,4.39" style="fill:none;stroke:#565987;stroke-width:1px;"/><path d="M870.05,702.13c0,0 -39.42,-80.2 -50.25,-78.44c-5.14,0.83 -7.51,5.89 -8.59,11c-1.328,6.571 -0.577,13.396 2.15,19.52c5.58,12.81 20.58,37.18 56.69,47.92Z" style="fill:#88ae3d;fill-rule:nonzero;"/><path d="M820.09,638.91c0,0 41.38,60 49.38,62.64" style="fill:none;stroke:#565987;stroke-width:1px;"/><path d="M816.28,648.28l9.66,0" style="fill:none;stroke:#565987;stroke-width:1px;"/><path d="M827.85,670.23l15.14,0.65" style="fill:none;stroke:#565987;stroke-width:1px;"/><path d="M837.06,652.67l-1.64,7.89" style="fill:none;stroke:#565987;stroke-width:1px;"/><path d="M853.16,676.67l-0.29,7.17" style="fill:none;stroke:#565987;stroke-width:1px;"/><path d="M868.88,702.13c0,0 39.42,-80.2 50.25,-78.44c5.15,0.83 7.52,5.89 8.59,11c1.328,6.571 0.577,13.396 -2.15,19.52c-5.63,12.81 -20.63,37.18 -56.69,47.92Z" style="fill:#88ae3d;fill-rule:nonzero;"/><path d="M918.84,638.91c0,0 -41.38,60 -49.37,62.64" style="fill:none;stroke:#565987;stroke-width:1px;"/><path d="M922.64,648.28l-9.66,0" style="fill:none;stroke:#565987;stroke-width:1px;"/><path d="M911.07,670.23l-15.14,0.65" style="fill:none;stroke:#565987;stroke-width:1px;"/><path d="M901.86,652.67l1.64,7.89" style="fill:none;stroke:#565987;stroke-width:1px;"/><path d="M885.76,676.67l0.29,7.17" style="fill:none;stroke:#565987;stroke-width:1px;"/><path d="M801.19,720.86c-1.074,-0.876 -1.856,-2.059 -2.24,-3.39c-0.36,-1.372 0.299,-2.82 1.57,-3.45c1.44,-0.55 3,0.45 4.14,1.46c1.14,1.01 2.5,2.16 4,1.95c-1.593,-1.451 -2.315,-3.635 -1.9,-5.75c0.07,-0.427 0.253,-0.828 0.53,-1.16c0.8,-0.86 2.25,-0.49 3.21,0.18c3,2.14 3.89,6.28 3.91,10c0.15,-1.369 0.15,-2.751 0,-4.12c-0.117,-1.394 0.464,-2.759 1.55,-3.64c0.723,-0.392 1.538,-0.585 2.36,-0.56c1.373,-0.195 2.766,0.201 3.83,1.09c1.16,1.24 0.86,3.33 -0.15,4.7c-1.138,1.283 -2.491,2.356 -4,3.17c-1.132,0.679 -2.099,1.601 -2.83,2.7c-0.082,0.154 -0.152,0.315 -0.21,0.48l-8.57,0c-1.89,-0.981 -3.639,-2.212 -5.2,-3.66Z" style="fill:#88ae3d;fill-rule:nonzero;"/><path d="M951.41,688.56c-1.074,-0.876 -1.856,-2.059 -2.24,-3.39c-0.356,-1.366 0.297,-2.808 1.56,-3.44c1.44,-0.56 3,0.44 4.15,1.45c1.15,1.01 2.5,2.16 4,2c-1.593,-1.451 -2.315,-3.635 -1.9,-5.75c0.07,-0.427 0.253,-0.828 0.53,-1.16c0.8,-0.86 2.25,-0.49 3.21,0.18c3,2.14 3.89,6.28 3.91,10c0.15,-1.369 0.15,-2.751 0,-4.12c-0.117,-1.394 0.464,-2.759 1.55,-3.64c0.723,-0.392 1.538,-0.585 2.36,-0.56c1.37,-0.197 2.761,0.2 3.82,1.09c1.17,1.24 0.86,3.33 -0.15,4.7c-1.137,1.283 -2.491,2.356 -4,3.17c-1.132,0.679 -2.099,1.601 -2.83,2.7c-0.082,0.154 -0.152,0.315 -0.21,0.48l-8.57,0c-1.889,-0.997 -3.635,-2.245 -5.19,-3.71Z" style="fill:#88ae3d;fill-rule:nonzero;"/><path d="M901.35,720.86c-1.077,-0.875 -1.862,-2.058 -2.25,-3.39c-0.36,-1.372 0.299,-2.82 1.57,-3.45c1.44,-0.55 3,0.45 4.15,1.46c1.15,1.01 2.5,2.16 4,1.95c-1.6,-1.446 -2.323,-3.635 -1.9,-5.75c0.065,-0.428 0.249,-0.83 0.53,-1.16c0.8,-0.86 2.24,-0.49 3.2,0.18c3,2.14 3.9,6.28 3.91,10c0.17,-1.367 0.19,-2.749 0.06,-4.12c-0.122,-1.392 0.456,-2.758 1.54,-3.64c0.724,-0.391 1.538,-0.584 2.36,-0.56c1.373,-0.196 2.766,0.2 3.83,1.09c1.16,1.24 0.86,3.33 -0.15,4.7c-1.139,1.281 -2.493,2.354 -4,3.17c-1.136,0.674 -2.104,1.597 -2.83,2.7c-0.086,0.152 -0.156,0.313 -0.21,0.48l-8.58,0c-1.901,-0.978 -3.66,-2.209 -5.23,-3.66Z" style="fill:#88ae3d;fill-rule:nonzero;"/><path d="M759.36,655.57c0,0 -3.22,4.2 1.48,10.55c4.7,6.35 8.58,11.71 7,15.67c0,0 -7.09,-11.79 -12.86,-12c-5.77,-0.21 -1.97,-7.16 4.38,-14.22Z" style="fill:#88ae3d;fill-rule:nonzero;"/><path d="M759.36,655.57c-0.284,0.405 -0.507,0.85 -0.66,1.32c-5.63,6.61 -8.63,12.79 -3.22,12.94c5.05,0.15 11.1,9.17 12.54,11.44c-0.042,0.178 -0.098,0.352 -0.17,0.52c-0.072,0.168 -7.09,-11.79 -12.86,-12c-5.77,-0.21 -1.98,-7.16 4.37,-14.22Z" style="fill-opacity:0.1;fill-rule:nonzero;"/><path d="M753.38,660.93c0,1.48 0.17,2.68 0.37,2.68c0.2,0 0.37,-1.2 0.37,-2.68c0,-1.48 -0.2,-0.78 -0.41,-0.78c-0.21,0 -0.33,-0.7 -0.33,0.78Z" style="fill:#ffd037;fill-rule:nonzero;"/><path d="M751.33,662.7c1.3,0.7 2.43,1.13 2.53,0.95c0.1,-0.18 -0.87,-0.9 -2.17,-1.61c-1.3,-0.71 -0.79,-0.19 -0.89,0c-0.1,0.19 -0.77,-0.05 0.53,0.66Z" style="fill:#ffd037;fill-rule:nonzero;"/><path d="M776.35,655.57c0,0 3.21,4.2 -1.49,10.55c-4.7,6.35 -8.57,11.71 -7,15.67c0,0 7.09,-11.79 12.87,-12c5.78,-0.21 1.97,-7.16 -4.38,-14.22Z" style="fill:#88ae3d;fill-rule:nonzero;"/><path d="M776.35,655.57c0.279,0.407 0.498,0.851 0.65,1.32c5.64,6.61 8.64,12.79 3.22,12.94c-5,0.15 -11.09,9.17 -12.54,11.44c0,0.18 0.11,0.35 0.17,0.52c0,0 7.09,-11.79 12.87,-12c5.78,-0.21 1.98,-7.16 -4.37,-14.22Z" style="fill-opacity:0.1;fill-rule:nonzero;"/><path d="M782.32,660.93c0,1.48 -0.16,2.68 -0.37,2.68c-0.21,0 -0.37,-1.2 -0.37,-2.68c0,-1.48 0.21,-0.78 0.41,-0.78c0.2,0 0.33,-0.7 0.33,0.78Z" style="fill:#ffd037;fill-rule:nonzero;"/><path d="M784.38,662.7c-1.3,0.7 -2.44,1.13 -2.53,0.95c-0.09,-0.18 0.87,-0.9 2.17,-1.61c1.3,-0.71 0.79,-0.19 0.89,0c0.1,0.19 0.77,-0.05 -0.53,0.66Z" style="fill:#ffd037;fill-rule:nonzero;"/><path d="M781.3,681.24c0,0 -9,-0.28 -11.7,-2.21c-2.7,-1.93 -13.83,-4.23 -14.5,-1.13c-0.67,3.1 -13.52,15.39 -3.36,15.47c10.16,0.08 23.58,-1.58 26.29,-3.23c2.71,-1.65 3.27,-8.9 3.27,-8.9Z" style="fill:#a8a8a8;fill-rule:nonzero;"/><path d="M751.55,692.29c10.16,0.08 23.59,-1.58 26.3,-3.23c2.05,-1.25 2.88,-5.75 3.15,-7.83l0.3,0c0,0 -0.57,7.25 -3.27,8.9c-2.7,1.65 -16.14,3.31 -26.29,3.23c-2.93,0 -3.95,-1.07 -3.89,-2.61c0.41,0.94 1.52,1.52 3.7,1.54Z" style="fill-opacity:0.2;fill-rule:nonzero;"/><ellipse cx="167.29" cy="706.09" rx="34.72" ry="5.13" style="fill:#88ae3d;fill-opacity:0.1;"/><ellipse cx="251.36" cy="752.14" rx="34.72" ry="5.13" style="fill:#88ae3d;fill-opacity:0.1;"/><ellipse cx="622.26" cy="632.15" rx="22.99" ry="2.57" style="fill:#88ae3d;fill-opacity:0.1;"/><ellipse cx="514.79" cy="706.09" rx="22.99" ry="2.57" style="fill:#88ae3d;fill-opacity:0.1;"/><ellipse cx="466.34" cy="752.14" rx="22.99" ry="2.57" style="fill:#88ae3d;fill-opacity:0.1;"/><defs><linearGradient id="_Linear1" x1="0" y1="0" x2="1" y2="0" gradientUnits="userSpaceOnUse" gradientTransform="matrix(1.73067e-14,-282.64,282.64,1.73067e-14,197.91,624.82)"><stop offset="0" style="stop-color:#808080;stop-opacity:0.247059"/><stop offset="0.54" style="stop-color:#808080;stop-opacity:0.117647"/><stop offset="1" style="stop-color:#808080;stop-opacity:0.0980392"/></linearGradient></defs></svg>